<?xml version="1.0" encoding="utf-8"?>
<!-- Generator: Adobe Illustrator 16.0.0, SVG Export Plug-In . SVG Version: 6.00 Build 0)  -->
<!DOCTYPE svg PUBLIC "-//W3C//DTD SVG 1.1//EN" "http://www.w3.org/Graphics/SVG/1.1/DTD/svg11.dtd">
<svg version="1.1" id="Layer_1" xmlns="http://www.w3.org/2000/svg" xmlns:xlink="http://www.w3.org/1999/xlink" x="0px" y="0px"
	 width="800px" height="300px" viewBox="0 0 800 300" enable-background="new 0 0 800 300" xml:space="preserve">
<g>
	<path fill-rule="evenodd" clip-rule="evenodd" d="M115.007,169.896c10.999,3.139,16.188,10.905,21.605,18.561
		c5.476,7.739,11.199,15.313,17.07,22.757c1.704,2.161,4.073,4.033,6.513,5.331c6.473,3.442,13.593-0.023,13.891-7.274
		c0.63-15.3,0.546-30.63,0.688-45.947c0.071-7.656,0.223-15.322-0.062-22.969c-0.422-11.339-1.196-12.716-10.73-16.264
		c23.53,0,47.061,0,71.141,0c1.173,7.644,2.387,15.54,3.601,23.437c-0.324,0.085-0.647,0.17-0.972,0.255
		c-1.388-3.072-2.59-6.245-4.201-9.194c-3.469-6.357-8.755-9.773-16.215-9.659c-8.148,0.126-16.3,0.029-24.856,0.029
		c0,12.698,0,25.094,0,37.483c12.922,3.513,19.515,0.571,25.144-11.447c0,10.262,0,20.202,0,30.835
		c-6.979-13.077-10.704-14.845-25.444-12.256c0,12.182-0.152,24.466,0.204,36.734c0.042,1.436,2.86,3.95,4.441,3.991
		c9.977,0.256,19.986,0.282,29.946-0.284c6.105-0.348,10.206-4.538,13.148-9.681c1.527-2.67,2.806-5.481,5.31-7.911
		c-1.197,7.235-2.222,14.51-3.785,21.666c-0.22,1.009-3.059,2.044-4.693,2.056c-19.657,0.137-39.315-0.056-58.97,0.181
		c-4.733,0.057-9.54,1.013-14.158,2.173c-17.314,4.347-27.976,0.234-37.327-14.991c-4.966-8.086-10.026-16.145-14.428-24.539
		c-4.418-8.424-10.95-12.107-20.278-11.37c-2.271,0.18-4.569,0.027-6.966,0.027c0,12.546-0.187,24.637,0.088,36.718
		c0.116,5.099,3.568,8.021,8.392,9.292c1.237,0.326,2.481,0.62,3.659,2.023c-14.151,0-28.304,0-42.971,0
		c0.745-0.644,1.193-1.339,1.78-1.489c8.217-2.097,10.562-4.98,10.616-13.739c0.078-12.829,0.023-25.66,0.017-38.49
		c-0.007-13.662-0.016-27.325-0.049-40.986c-0.003-1.301-0.177-2.601-0.298-4.265c-8.439,0.855-15.85,3.147-21.269,10.129
		c-2.299-7.09,0.491-12.851,6.989-13.573c16.346-1.818,32.725-3.756,49.138-4.367c7.424-0.276,15.233,1.671,22.388,4.052
		c12.21,4.06,17.966,12.256,18.222,23.521c0.268,11.768-6.332,21.581-17.833,26.396
		C121.201,167.807,118.812,168.537,115.007,169.896z M84.4,165.782c6.515,0,12.513,0.466,18.408-0.11
		c8.636-0.845,15.458-5.302,17.498-13.957c1.326-5.624,1.282-11.916,0.316-17.649c-1.275-7.576-6.637-12.531-14.009-14.787
		c-7.293-2.233-14.672-1.427-22.214-0.295C84.4,134.688,84.4,149.917,84.4,165.782z"/>
	<path fill-rule="evenodd" clip-rule="evenodd" d="M707.708,219.814c-13.686,0-27.372,0-41.237,0
		c0.256-0.896,0.268-1.412,0.439-1.472c9.873-3.41,10.99-4.981,11.002-15.894c0.021-19.827-0.079-39.656,0.058-59.482
		c0.06-8.618-0.161-16.782-12-18.012c0.19-0.396,0.382-0.791,0.573-1.187c1.088-0.208,2.176-0.595,3.266-0.596
		c15.493-0.019,30.996-0.275,46.478,0.185c5.892,0.176,12.025,1.238,17.546,3.264c16.117,5.917,20.165,23.718,8.563,36.473
		c-2.431,2.673-5.378,5-8.431,6.944c-2.888,1.839-6.229,2.966-8.44,3.979c3.728,3.689,8.082,7.293,11.569,11.6
		c6.913,8.54,13.418,17.417,19.95,26.259c3.683,4.985,7.357,9.679,14.982,7.244c0.076,0.461,0.152,0.922,0.228,1.384
		c-1.053,0.84-1.985,2.132-3.179,2.453c-15.396,4.141-24.167,1.771-31.533-8.777c-6.291-9.009-12.441-18.12-18.493-27.292
		c-6.355-9.633-10.92-11.672-22.972-9.561c0,10.373-0.299,20.829,0.136,31.255c0.193,4.638,3.231,7.922,8.148,8.903
		c1.212,0.242,2.387,0.67,3.579,1.013C707.863,218.937,707.786,219.376,707.708,219.814z M696.114,171.131
		c6.592-0.392,12.933-0.141,19.017-1.271c10.128-1.884,15.83-10.837,15.284-22.54c-0.485-10.417-6.048-16.879-16.395-17.976
		c-5.845-0.62-11.81-0.112-17.906-0.112C696.114,143.223,696.114,156.747,696.114,171.131z"/>
	<path fill-rule="evenodd" clip-rule="evenodd" d="M470.103,124.633c1.092,6.853,2.375,14.913,3.66,22.974
		c-0.456,0.169-0.911,0.338-1.366,0.508c-0.59-1.132-1.267-2.227-1.756-3.4c-6.35-15.22-28.265-22.04-42.25-13.127
		c-8.585,5.47-8.925,15.546-0.626,21.467c1.732,1.236,3.765,2.117,5.76,2.904c8.359,3.299,16.807,6.379,25.117,9.792
		c3.521,1.446,6.943,3.271,10.139,5.343c15.062,9.772,16.377,28.236,2.961,40.275c-10.541,9.462-23.164,11.053-36.501,9.24
		c-5.584-0.759-11.088-2.194-16.577-3.533c-3.619-0.884-6.919-1.387-8.757,3.272c-0.387-0.132-0.771-0.263-1.158-0.394
		c-1.513-10.034-3.026-20.066-4.54-30.1c0.43-0.127,0.858-0.254,1.288-0.381c0.531,1.247,1.111,2.477,1.588,3.745
		c6.819,18.14,28.403,27.159,46.21,19.246c5.665-2.519,8.946-7.012,9.354-13.146c0.41-6.161-2.003-11.228-7.882-13.792
		c-7.77-3.39-15.703-6.4-23.562-9.583c-3.546-1.437-7.2-2.661-10.598-4.393c-10.325-5.263-15.818-13.556-14.872-25.408
		c0.888-11.125,7.695-17.706,17.535-21.521c11.985-4.649,24-4.203,36.151-0.139C462.388,125.477,465.968,124.633,470.103,124.633z"
		/>
	<path fill-rule="evenodd" clip-rule="evenodd" d="M333.871,147.747c-0.551-0.937-1.197-1.83-1.638-2.815
		c-6.547-14.613-18.546-21.284-35.591-19.755c-14.22,1.275-23.528,9.583-26.981,25.255c-3.87,17.563-4.02,35.116,3.983,51.768
		c7.481,15.566,28.662,21.339,43.359,12.171c4.021-2.509,5.822-6.307,5.907-10.923c0.098-5.326,0.057-10.655,0.049-15.984
		c-0.015-11.132-0.964-12.376-11.384-15.726c13.658,0,27.317,0,41.047,0c-0.102,0.38-0.104,0.623-0.183,0.651
		c-11.548,4.062-11.61,4.138-11.644,17.055c-0.021,7.983-0.004,15.966-0.004,24.182c-15.562,3.738-30.185,10.283-46.817,8.535
		c-30.061-3.159-48.52-24.919-45.532-54.991c3.454-34.764,31.235-53.685,65.07-44.312c5.867,1.625,11.689,4.366,18.129,0.038
		c1.188,8.554,2.297,16.553,3.409,24.552C334.657,147.546,334.265,147.647,333.871,147.747z"/>
	<path fill-rule="evenodd" clip-rule="evenodd" d="M606.324,129.358c0,12.451,0,24.701,0,38.052
		c5.425-0.502,11.202,0.273,15.601-1.832c3.979-1.905,6.452-6.955,9.343-10.331c0,9.551,0,20.035,0,30.521
		c-0.422,0.424-0.844,0.85-1.266,1.274c-1.646-16.132-12.652-14.429-23.917-13.834c0,5.805-0.002,11.567,0,17.328
		c0.002,5.996,0.095,11.993-0.019,17.987c-0.074,3.981,1.552,5.762,5.648,5.685c8.156-0.152,16.32-0.211,24.476-0.012
		c8.37,0.204,13.858-3.774,17.37-11.04c1.312-2.714,2.643-5.42,3.964-8.129c0.456,0.145,0.911,0.289,1.366,0.434
		c-0.286,2.351-0.521,4.707-0.87,7.047c-0.71,4.775-1.253,9.595-2.366,14.278c-0.329,1.385-2.328,3.386-3.573,3.394
		c-24.312,0.162-48.624,0.075-72.938,0.01c-0.729-0.002-1.459-0.313-2.44-0.538c0.501-0.814,0.705-1.497,0.964-1.518
		c8.712-0.716,10.514-6.721,10.517-13.127c0.008-20.815,0.082-41.632-0.018-62.447c-0.062-12.988-0.182-12.987-12.528-18.845
		c25.256,0,49.113,0,73.478,0c1.188,7.86,2.408,15.945,3.629,24.029c-0.486,0.174-0.974,0.348-1.461,0.521
		c-0.696-1.459-1.506-2.875-2.074-4.382c-4.29-11.391-9.254-14.889-21.281-14.896c-6.663-0.004-13.325,0-19.986,0.015
		C607.617,129.002,607.293,129.139,606.324,129.358z"/>
	<path fill-rule="evenodd" clip-rule="evenodd" d="M568.843,147.67c-6.499-20.767-16.119-19.441-35.136-18.097
		c0,5.877,0,11.811,0,17.746c0,17.814,0.036,35.629-0.016,53.444c-0.024,8.545-0.267,17.121,12.621,17.337
		c-0.351,0.482-0.7,0.965-1.05,1.446c-13.555,0-27.109,0-40.664,0c-0.083-0.251-0.166-0.503-0.249-0.755
		c0.901-0.414,1.766-1.054,2.708-1.205c5.742-0.925,8.452-4.576,8.474-10.038c0.106-25.94,0.048-51.882,0.048-79.347
		c-7.642,0.891-15.16,0.858-22.117,2.817c-7.835,2.205-9.515,10.509-12.333,17.334c-0.565-0.222-1.131-0.443-1.695-0.664
		c1.217-7.724,2.361-15.461,3.787-23.146c0.118-0.64,2.138-1.317,3.276-1.32c25.633-0.082,51.268-0.092,76.901-0.012
		c1.061,0.004,2.918,0.864,3.052,1.579c1.408,7.544,2.541,15.14,3.75,22.721C569.748,147.564,569.295,147.618,568.843,147.67z"/>
	<path fill-rule="evenodd" clip-rule="evenodd" d="M395.256,219.774c-13.53,0-27.059,0-42,0c1.71-1.183,2.143-1.672,2.669-1.818
		c8.548-2.372,9.999-4.009,10.037-12.783c0.09-20.986,0.004-41.976,0.04-62.963c0.015-8.31,0.391-16.763-12.201-16.987
		c0.317-0.451,0.635-0.903,0.951-1.355c13.557,0,27.113,0,40.745,0c-0.119,0.499-0.12,1.013-0.271,1.062
		c-10.284,3.315-11.283,4.567-11.315,15.565c-0.059,19.824,0.006,39.649-0.017,59.474c-0.01,8.671-0.935,17.839,12.545,18.371
		C396.045,218.818,395.65,219.296,395.256,219.774z"/>
	<path fill-rule="evenodd" clip-rule="evenodd" d="M324.23,92.535c2.344,3.646,4.333,6.892,6.478,10.031
		c2.61,3.82,4.58,3.756,6.214-0.396c2.552-6.489,4.692-13.139,7.222-19.638c0.724-1.861,2.184-3.435,4.005-6.202
		c4.423,11.024,8.16,20.337,11.904,29.666c-2.084,0-4.535,0-6.991,0c0.155-7.229-1.582-8.899-8.933-8.765
		c-4.003,0.073-5.583,2.584-5.311,8.394c-7.869,2.754-13.321,0.269-16.831-7.318c-0.912-1.97-3.067-3.366-4.651-5.025
		c-0.516,0.273-1.034,0.546-1.55,0.819c0.282,3.911,0.564,7.822,0.861,11.945c-1.928,0-4.539,0-6.725,0c0-8.853,0-17.708,0-27.519
		c2.902,0,6.285-0.088,9.66,0.023c3.804,0.126,7.471,0.881,8.912,5.029C329.975,87.841,327.321,90.41,324.23,92.535z
		 M316.192,92.436c2.703-1.388,5.481-1.931,6.415-3.542c0.926-1.599,0.679-4.694-0.335-6.349c-0.873-1.427-3.547-1.752-6.08-2.849
		C316.192,84.319,316.192,87.682,316.192,92.436z M341.644,95.078c3.137,0,5.522,0,8.401,0c-1.372-3.731-2.581-7.02-4.221-11.484
		C344.201,88.051,343.045,91.228,341.644,95.078z"/>
	<path fill-rule="evenodd" clip-rule="evenodd" d="M702.873,213.029c2.756,0.48,5.512,0.962,8.707,1.52c0,2.765,0,5.685,0,9.042
		c-15.978,0-32.154,0-48.571,0c0-3.076,0-5.98,0-8.824c10.459-2.021,11.248-2.938,11.275-13.474
		c0.054-20.306,0.076-40.609,0.078-60.915c0.002-8.283-2.094-10.448-11.382-11.589c0-2.839,0-5.731,0-8.898
		c20.479,0,40.957,0,61.436,0c0,0.279,0,0.559,0.001,0.838c-19.98,0-39.962,0-60.219,0c0,2.508,0,4.597,0,6.651
		c10.403,2.856,11.435,4.083,11.45,14.758c0.031,20.472-0.02,40.945-0.092,61.417c-0.029,8.229-1.395,9.646-11.375,12.201
		c0,2.182,0,4.435,0,7.034c15.526,0,30.895,0,46.519,0c0-2.553,0-4.803,0-6.744c-2.765-1.115-5.248-2.116-7.732-3.118
		L702.873,213.029z"/>
	<path fill-rule="evenodd" clip-rule="evenodd" d="M196.94,106.031c1.534-9.182,1.701-18.15-0.104-27.4c2.319,0,5.346,0,7.392,0
		c-0.469,3.91-0.958,7.967-1.504,12.519c5.048,0,9.271,0,14.338,0c-0.355-4.386-0.688-8.487-1.021-12.617c1.922,0,4.694,0,7.324,0
		c-1.841,9.189-1.749,18.177-0.191,27.449c-2.14,0-4.884,0-7.143,0c0.353-3.978,0.711-8.027,1.105-12.488c-4.851,0-8.931,0-13.96,0
		c0.247,4.189,0.487,8.271,0.738,12.537C201.941,106.031,199.177,106.031,196.94,106.031z"/>
	<path fill-rule="evenodd" clip-rule="evenodd" d="M536.767,78.377c1.425,0,3.908,0,5.399,0c0,7.564-0.256,15.165,0.226,22.719
		c0.092,1.443,3.238,3.94,4.729,3.772c2.65-0.299,7.155-2.057,7.309-3.568c0.76-7.45,0.346-15.021,0.346-22.791
		c1.655,0,4.532,0,6.941,0c-2.096,8.97-1.375,17.996-0.263,27.626c-1.471-0.312-3.856-0.968-6.285-1.265
		c-1.082-0.132-2.315,0.312-3.374,0.75c-8.688,3.601-14.942-0.408-15.02-9.721C536.729,90.188,536.767,84.475,536.767,78.377z"/>
	<path fill-rule="evenodd" clip-rule="evenodd" d="M515.531,106.861c-8.319-0.241-14.658-6.944-14.445-15.276
		c0.218-8.532,6.995-14.641,15.842-14.275c8.071,0.332,14.183,6.978,13.927,15.142C530.593,100.786,523.876,107.102,515.531,106.861
		z M525.11,92.177c0-0.831,0.047-1.666-0.008-2.493c-0.44-6.693-4.12-10.981-9.276-10.844c-5.098,0.138-8.677,4.636-8.936,11.237
		c-0.026,0.665-0.029,1.331-0.025,1.996c0.047,8.388,3.734,13.698,9.381,13.518C521.788,105.415,525.155,100.345,525.11,92.177z"/>
	<path fill-rule="evenodd" clip-rule="evenodd" d="M289.481,77.871c8.878,0.011,14.782,5.641,14.725,14.042
		c-0.061,8.738-6.089,14.948-14.597,15.035c-8.771,0.09-14.997-6.227-14.935-15.153C274.732,83.343,280.563,77.86,289.481,77.871z
		 M298.938,92.321c-0.728-2.869-0.815-6.166-2.368-8.482c-1.469-2.19-4.479-4.628-6.803-4.62c-2.541,0.01-6.095,2.126-7.353,4.366
		c-1.655,2.947-2.229,6.963-1.978,10.426c0.578,7.958,4.26,11.911,9.604,11.53C295.385,105.158,298.7,100.068,298.938,92.321z"/>
	<path fill-rule="evenodd" clip-rule="evenodd" d="M575.011,105.768c-0.961,0-2.606,0-3.832,0
		c1.531-9.055,1.714-18.012,0.136-27.114c4.716-0.855,4.705-0.845,8.281,3.437c3.797,4.546,7.619,9.072,11.61,13.82
		c0-6.038,0-11.571,0-17.371c0.88,0,2.742,0,3.58,0c0,9.103,0,18.23,0,27.358c-0.587,0.216-1.174,0.432-1.76,0.647
		c-5.975-7.268-11.95-14.535-18.016-21.914C575.011,91.779,575.011,98.594,575.011,105.768z"/>
	<path fill-rule="evenodd" clip-rule="evenodd" d="M386.083,95.804c-0.367-5.686-0.734-11.372-1.116-17.293
		c0.825-0.038,2.451-0.113,3.269-0.151c0,9.311,0,18.52,0,27.729c-0.604,0.17-1.208,0.339-1.812,0.509
		C380.614,99.494,374.806,92.39,368.762,85c0,7.162,0,13.846,0,20.788c-0.845,0-2.598,0-3.872,0
		c1.327-9.111,2.504-18.155-0.727-27.275c4.03-1.377,6.976,0.684,9.674,4.404c3.379,4.662,7.269,8.954,10.938,13.407
		C385.211,96.149,385.647,95.977,386.083,95.804z"/>
	<path fill-rule="evenodd" clip-rule="evenodd" d="M418.31,79.096c0.21,2.344,0.386,4.305,0.443,4.947
		c-3.057-1.553-6.396-3.922-10.094-4.841c-1.817-0.451-4.828,1.285-6.387,2.907c-4.406,4.585-3.647,16.877,0.914,21.324
		c2.606,2.541,7.902,2.974,10.607,0.868c2.493-1.941,2.604-7.645,0.118-12.138c2.872,0,5.633,0,7.898,0
		c-0.382,2.726-1.053,5.551-1.098,8.386c-0.044,2.802-0.978,4.411-3.814,4.745c-3.587,0.423-7.262,1.579-10.738,1.144
		c-9.001-1.123-13.202-6.971-12.321-16.035c0.749-7.713,6.825-12.854,15.18-12.573C411.962,77.927,414.884,78.609,418.31,79.096z"/>
	<path fill-rule="evenodd" clip-rule="evenodd" d="M449.114,84.561c-3.746-4.982-4.854-5.276-13.429-3.892c0,3.175,0,6.408,0,10.558
		c2.952-0.743,5.463-1.374,8.103-2.038c0,1.307,0,3.326,0,4.972c-2.363-0.538-4.873-1.108-8.975-2.04
		c0.836,4.813,0.293,10.391,2.37,11.652c3.266,1.981,8.48,1.663,11.885-2.994c-0.18,1.59-0.359,3.18-0.57,5.053
		c-6.771,0-13.212,0-19.616,0c2.277-9.004,1.068-18.137,0.561-27.311c5.668,0,12.114,0,18.999,0
		C448.657,80.459,448.851,82.192,449.114,84.561z"/>
	<path fill-rule="evenodd" clip-rule="evenodd" d="M232.69,78.628c6.213,0,12.792,0,19.745,0c0.21,1.951,0.396,3.682,0.582,5.412
		c-3.237-5.918-8.517-3.47-13.513-3.76c0,3.538,0,6.888,0,11.143c3.066-0.795,5.718-1.482,8.298-2.151c0,1.408,0,3.379,0,4.856
		c-2.604-0.498-5.172-0.988-8.236-1.574c0,4.101,0,7.504,0,10.983c5.533,2.056,9.352,1.278,13.121-2.841
		c0.983,4.562-1.024,5.84-5.278,5.591c-4.956-0.29-9.942-0.068-14.654-0.068C234.501,96.846,234.806,87.754,232.69,78.628z"/>
	<path fill-rule="evenodd" clip-rule="evenodd" d="M180.314,105.912c-1.877,0-4.674,0-7.426,0c2.76-8.408,0.901-16.855,1.483-26.781
		c-4.198,1.529-7.317,2.667-10.276,3.745c0.034-0.654,0.11-2.113,0.211-4.035c8.398,0,16.618,0,25.335,0
		c0.146,1.911,0.289,3.794,0.36,4.735c-3.029-1.38-6.177-2.815-9.688-4.416C180.314,88.935,180.314,97.348,180.314,105.912z"/>
	<path fill-rule="evenodd" clip-rule="evenodd" d="M646.057,105.709c-1.183,0-3.814,0-6.633,0
		c5.463-11.335-2.877-18.623-7.657-27.181c2.745,0,5.456,0,7.017,0c1.912,4.181,3.657,7.997,5.401,11.813
		c0.448-0.036,0.896-0.072,1.345-0.108c1.514-3.848,6.013-6.298,4.917-11.682c1.67,0,3.556,0,5.629,0
		c-2.963,4.319-6.705,8.179-8.456,12.793C645.999,95.618,646.51,100.7,646.057,105.709z"/>
	<path fill-rule="evenodd" clip-rule="evenodd" d="M610.113,79.145c-3.111,1.156-6.215,2.311-9.223,3.429
		c0.032-0.561,0.127-2.156,0.234-3.987c8.533,0,16.766,0,25.293,0c0.181,1.929,0.331,3.538,0.414,4.419
		c-3.063-1.245-6.3-2.561-10.406-4.231c-0.154,9.984-0.92,18.35,0.932,26.837c-2.049,0-4.921,0-7.244,0
		C610.113,97.301,610.113,88.809,610.113,79.145z"/>
	<path fill-rule="evenodd" clip-rule="evenodd" d="M494.947,78.698c0.266,2.312,0.529,4.599,0.806,6.99
		c-0.526-0.126-0.956-0.101-1.062-0.274c-3.217-5.28-7.273-7.417-11.678-6.111c-4.437,1.316-7.028,5.405-6.968,11.445
		c0.021,2.128,0.315,4.332,0.939,6.361c2.536,8.25,9.934,10.18,16.192,4.322c0.723-0.676,1.364-1.438,2.194-2.322
		c-1.139,4.248-4.372,6.902-9.021,7.601c-5.406,0.811-11.428-2.016-14.084-6.611c-5.836-10.097,0.794-21.94,12.449-22.076
		C487.97,77.984,491.23,78.438,494.947,78.698z"/>
	<path fill-rule="evenodd" clip-rule="evenodd" d="M620.956,176.983c6.025,1.185,4.588,6.829,6.624,10.944c1.777,0,3.861,0,6.348,0
		c0-11.938,0-23.852,0-36.007c-3.569-1.066-6.369-1.997-7.325,3.592c-1.365,7.983-6.618,10.196-17.425,8.132
		c0-10.377,0-20.815,0-31.703c1.771,0,3.606,0,5.443,0c0.027,0.139,0.054,0.278,0.08,0.417c-1.345,0.213-2.689,0.425-4.379,0.691
		c0,9.796,0,19.527,0,29.248c9.492,2.834,12.626,0.601,16.178-11.733c2.813,0,5.726,0,8.988,0c0,12.883,0,25.602,0,38.698
		c-3.084,0-6.003,0-8.163,0c-2.229-4.38-4.262-8.377-6.295-12.373L620.956,176.983z"/>
	<path fill-rule="evenodd" clip-rule="evenodd" d="M388.937,132.011c-0.348,3.282-0.981,6.562-0.997,9.847
		c-0.097,19.635-0.071,39.27-0.047,58.905c0.015,11.744,0.122,11.837,11.578,13.969c0,2.829,0,5.723,0,8.94
		c-16.038,0-31.931,0-48.146,0c0-2.975,0-5.879,0-9.208c1.719-0.14,3.442-0.279,5.164-0.42c0.029,0.181,0.059,0.361,0.089,0.542
		c-1.343,0.255-2.686,0.51-4.393,0.834c0,2.371,0,4.746,0,7.453c15.388,0,30.605,0,46.023,0c0.868-4.42,1.611-7.9-4.741-8.309
		c-5.04-0.324-6.56-4.356-6.559-9.031c0.001-15.14-0.055-30.28-0.095-45.42c-0.018-6.988-0.24-13.984,0.033-20.96
		c0.093-2.376,1.418-4.705,2.181-7.054L388.937,132.011z"/>
	<path fill-rule="evenodd" clip-rule="evenodd" d="M511.925,208.516c0-25.053,0-50.105,0-75.093
		c-16.031-2.688-21.982,0.971-25.626,14.099c-0.96,3.458-2.247,4.863-5.69,4.281c-0.648-0.109-1.327-0.035-1.993-0.031
		c-10.343,0.057-10.343,0.057-13.784-11.564c1.343,2.041,2.06,2.986,2.623,4.016c1.165,2.131,1.859,5.744,3.445,6.175
		c3.564,0.968,7.581,0.619,11.354,0.234c1.014-0.104,2.211-2.136,2.655-3.501c4.505-13.83,13.156-18.562,27.869-14.945
		c0,25.366,0,50.776,0,76.186C512.494,208.42,512.21,208.468,511.925,208.516z"/>
	<path fill-rule="evenodd" clip-rule="evenodd" d="M658.404,223.767c-28.611,0-56.687,0-85.127,0c0-3.121,0-6.019,0-9.229
		c2.478-0.411,5.026-0.833,7.574-1.255c-4.35,1.494-9.135,2.672-6.062,9.479c27.172,0,54.551,0,82.487,0
		c1.517-9.718,3.047-19.512,4.583-29.352c-5.584-2.725-7.764,0.676-9.414,5.087c1.186-7.752,1.826-8.149,10.828-6.41
		C661.676,202.479,660.073,212.903,658.404,223.767z"/>
	<path fill-rule="evenodd" clip-rule="evenodd" d="M362.163,211.15c0-12.88,0.007-25.76-0.002-38.641
		c-0.007-10.66-0.027-21.321-0.051-31.982c-0.02-8.776-0.626-9.512-9.126-11.223c-0.628-0.127-1.247-0.31-1.969-0.491
		c0-2.885,0-5.644,0-8.896c7.706,0,15.122,0,22.538,0c0.004,0.282,0.008,0.564,0.013,0.846c-7.101,0-14.2,0-21.506,0
		c0,2.601,0,4.692,0,6.982c1.288,0.265,2.391,0.527,3.507,0.715c4.956,0.831,7.605,3.429,7.595,8.769
		c-0.03,16.311,0.14,32.623,0.227,48.933c0.03,5.661,0.151,11.323,0.025,16.979c-0.061,2.716-0.601,5.422-0.923,8.131
		C362.381,211.232,362.272,211.191,362.163,211.15z"/>
	<path fill-rule="evenodd" clip-rule="evenodd" d="M555.966,133.95c-5.888-0.571-11.773-1.143-18.284-1.775
		c0,26.502,0,52.152,0,77.799c-0.308,0.005-0.616,0.01-0.925,0.015c0-25.935,0-51.871,0-78.289
		c6.263,0.078,13.011-2.08,19.132,2.336C555.889,134.036,555.966,133.95,555.966,133.95z"/>
	<path fill-rule="evenodd" clip-rule="evenodd" d="M587.144,119.04c-4.113,0.628-8.225,1.257-12.732,1.945c0,2.076,0,4.265,0,6.387
		c10.537,2.121,11.285,3.033,11.294,13.562c0.019,20.805,0.048,41.608,0.008,62.412c-0.005,2.247-0.436,4.492-1.082,6.666
		c0-14.002,0.004-28.004-0.002-42.007c-0.004-9.476,0.077-18.953-0.064-28.427c-0.124-8.35-1.641-9.764-11.219-10.976
		c0-2.814,0-5.691,0-9.516c4.597,0,9.199,0,13.802,0L587.144,119.04z"/>
	<path fill-rule="evenodd" clip-rule="evenodd" d="M159.552,128.613c0-2.722,0-5.476,0-8.523c7.559,0,14.818,0,22.078,0
		c0.006,0.195,0.013,0.392,0.02,0.587c-6.841,0-13.682,0-20.797,0c0,2.616,0,4.692,0,7.019c1.476,0.348,2.875,0.81,4.309,0.991
		c4.69,0.592,6.644,3.631,6.659,7.9c0.084,23.45,0.052,46.901-0.005,70.352c-0.003,1.43-0.56,2.857-0.813,4.068
		c0-23.652,0.037-47.451-0.021-71.25C170.962,131.711,170.04,130.915,159.552,128.613z"/>
	<path fill-rule="evenodd" clip-rule="evenodd" d="M641.458,134.597c1.827,3.803,4.25,7.446,5.33,11.451
		c1.284,4.762,3.642,5.744,8.526,3.97c-1.229-9.544-2.467-19.168-3.772-29.31c-6.808,0-13.352,0-19.896,0
		c0.001-0.309,0.001-0.617,0.002-0.927c6.903,0,13.807,0,21.297,0c1.369,10.504,2.735,20.982,4.148,31.825c-3.307,0-6.229,0-9.239,0
		c-2.438-5.442-4.92-10.98-7.403-16.519C640.787,134.924,641.123,134.761,641.458,134.597z"/>
	<path fill-rule="evenodd" clip-rule="evenodd" d="M621.03,176.89c-3.451,0-6.904,0-10.966,0c0,10.576-0.091,20.668,0.153,30.75
		c0.022,0.924,2.175,2.547,3.362,2.57c8.472,0.167,16.958,0.205,25.419-0.178c2.579-0.117,5.091-1.684,7.633-2.587
		c0.122,0.413,0.244,0.825,0.366,1.238c-3.625,1.012-7.212,2.674-10.887,2.898c-7.456,0.458-14.961,0.14-22.445,0.137
		c-2.847-0.001-4.803-0.83-4.775-4.252c0.082-10.293,0.029-20.588,0.029-32.151c4.276,0.593,8.155,1.132,12.035,1.669
		C620.956,176.983,621.03,176.89,621.03,176.89z"/>
	<path fill-rule="evenodd" clip-rule="evenodd" d="M231.647,209.258c-2.016,0.611-4.014,1.679-6.052,1.759
		c-8.969,0.35-17.951,0.558-26.922,0.407c-1.168-0.02-3.256-2.393-3.292-3.72c-0.275-10.296-0.152-20.604-0.152-30.826
		c8.64-2.419,14.046-1.033,16.398,4.267c-3.717-5.835-9.331-4.1-15.257-4.035c0,10.422-0.076,20.684,0.135,30.938
		c0.019,0.879,1.947,2.456,2.996,2.463C210.178,210.576,221.005,212.563,231.647,209.258z"/>
	<path fill-rule="evenodd" clip-rule="evenodd" d="M308.812,167.92c0,3.027,0,5.291,0,7.604c2.598,0.548,4.94,1.041,7.283,1.534
		c-0.033,0.19-0.066,0.381-0.1,0.57c-2.578-0.317-5.156-0.634-8.18-1.007c0-2.967,0-5.99,0-9.282c16.283,0,32.358,0,48.763,0
		c0,3.166,0,6.066,0,9.021c-3.398,0.727-6.721,1.438-10.042,2.147c-0.069-0.271-0.14-0.54-0.209-0.81
		c2.962-0.742,5.924-1.484,8.959-2.245c1.611-7.159,1.33-7.529-5.974-7.532C336.012,167.916,322.71,167.92,308.812,167.92z"/>
	<path fill-rule="evenodd" clip-rule="evenodd" d="M510.59,213.352c-2.644,0.706-5.288,1.413-8.597,2.298
		c-0.095,1.981-0.21,4.366-0.342,7.127c15.587,0,30.781,0,46.281,0c0-2.629,0-5.001,0-7.296c-2.599-0.533-4.821-0.99-7.043-1.446
		c0.034-0.223,0.068-0.445,0.103-0.669c2.602,0.341,5.204,0.682,8.211,1.075c0,3.029,0,6.053,0,9.315c-16.266,0-32.18,0-48.383,0
		c0-3.108,0-6.059,0-9.012c3.335-0.77,6.449-1.488,9.562-2.206C510.452,212.809,510.521,213.08,510.59,213.352z"/>
	<path fill-rule="evenodd" clip-rule="evenodd" d="M61.847,210.98c0-28.212,0-56.424,0-84.903c-1.719,0.215-3.284,0.411-4.849,0.607
		c-0.044-0.224-0.089-0.447-0.134-0.671c1.902-0.447,3.804-0.894,5.685-1.335c0,29.08,0,57.697,0,86.314
		C62.315,210.988,62.081,210.984,61.847,210.98z"/>
	<path fill-rule="evenodd" clip-rule="evenodd" d="M404.928,223.748c-1.689-12.792-3.315-25.099-4.993-37.806
		c3.148,0,5.921,0,8.694,0c0.016,0.268,0.03,0.536,0.046,0.805c-2.141,0-4.282,0-7.18,0c1.495,12.182,2.939,23.951,4.402,35.879
		c3.235,0.753,5.322,0.536,8.143-1.745c2.026-1.638,6.443-0.318,9.797,0.351c-3.893,0.108-7.816-2.146-11.229,2.337
		C411.704,224.757,407.916,223.748,404.928,223.748z"/>
	<path fill-rule="evenodd" clip-rule="evenodd" d="M210.841,159.909c-1.803,1.344-3.444,3.418-5.446,3.859
		c-2.997,0.66-6.246,0.171-9.826,0.171c0-10.426,0-20.796,0-32c9.923,0.709,20.062-1.425,30.776,1.752c-10.367,0-19.871,0-29.855,0
		c0,9.315,0,19.064,0,29.221c5.321,0.715,10.282,1.133,14.457-2.912L210.841,159.909z"/>
	<path fill-rule="evenodd" clip-rule="evenodd" d="M569.05,119.893c0.758,2.891,1.779,5.742,2.223,8.682
		c1.128,7.483,1.999,15.007,2.965,22.46c-7.839,1.8-7.728,1.489-10.662-5.284c-1.837-4.237-5.027-7.887-7.609-11.8
		c0,0-0.077,0.086-0.077,0.087c5.912,1.776,7.889,6.892,9.11,11.954c1.163,4.82,3.636,5.07,7.802,3.843
		c-1.237-10.083-2.459-20.049-3.682-30.015L569.05,119.893z"/>
	<path fill-rule="evenodd" clip-rule="evenodd" d="M168.459,223.404c25.432,0,50.865,0,76.297,0c0.005,0.124,0.011,0.247,0.016,0.37
		c-25.425,0-50.851,0-76.275,0C168.484,223.651,168.472,223.528,168.459,223.404z"/>
	<path fill-rule="evenodd" clip-rule="evenodd" d="M241.911,150.325c-1.188-9.097-2.262-17.99-3.598-26.843
		c-0.195-1.294-1.638-2.399-2.392-3.438c0.304-0.018,1.445-0.082,3.174-0.181c1.368,10.521,2.728,20.976,4.133,31.78
		c-3.283,0-6.043,0-8.815,0c-1.762-4.423-3.5-8.791-5.24-13.158c0.252-0.113,0.504-0.226,0.755-0.338
		c1.25,2.626,3.046,5.138,3.626,7.904C234.55,150.797,236.952,152.026,241.911,150.325z"/>
	<path fill-rule="evenodd" clip-rule="evenodd" d="M569.119,119.819c-17.428,0-34.855,0-52.283,0
		c-0.007-0.144-0.013-0.287-0.02-0.43c6.949,0,13.899-0.062,20.848,0.014c10.461,0.115,20.919,0.326,31.383,0.493
		C569.05,119.893,569.119,119.819,569.119,119.819z"/>
	<path fill-rule="evenodd" clip-rule="evenodd" d="M330.435,119.026c1.455,0.092,2.909,0.184,4.832,0.305
		c1.305,10.754,2.589,21.355,3.878,31.976c-10.574,0.88-8.232,2.37-12.83-9.896c4.167,2.49,2.064,12.485,11.585,8.937
		c-0.729-6.525-1.466-13.204-2.224-19.878c-0.206-1.811-0.569-3.61-0.688-5.426C334.778,121.826,334.389,118.875,330.435,119.026z"
		/>
	<path fill-rule="evenodd" clip-rule="evenodd" d="M775.343,215.594c0.997,8.828,0.726,9.657-7.835,11.41
		c-9.517,1.948-19.107,2.812-27.214-4.669c6.16,4.516,13.153,5.396,20.392,4.712c3.104-0.293,6.163-1.153,9.217-1.864
		c4.472-1.04,5.867-3.809,4.476-7.9c-3.892-0.535-7.637-1.051-11.383-1.566c0.045-0.245,0.089-0.489,0.134-0.734
		C767.082,215.18,771.034,215.377,775.343,215.594z"/>
	<path fill-rule="evenodd" clip-rule="evenodd" d="M210.947,160c0.793-3.037,1.586-6.074,2.422-9.274c2.8,0,5.536,0,8.456,0
		c0,12.96,0,25.537,0,38.418c-1.999,0.176-3.778,0.331-5.557,0.487c3.732-0.141,4.867-1.915,4.759-5.655
		c-0.278-9.649-0.015-19.313-0.234-28.967c-0.031-1.358-1.307-3.498-2.444-3.845c-1.972-0.6-4.155-0.359-4.653,2.848
		c-0.32,2.064-1.859,3.939-2.854,5.898C210.841,159.909,210.947,160,210.947,160z"/>
	<path fill-rule="evenodd" clip-rule="evenodd" d="M421.084,122.125c7.928-4.868,16.714-5.395,25.566-4.459
		c4.552,0.48,8.938,2.361,13.47,3.252c2.249,0.441,4.656,0.076,6.977,0.076c-1.156,3.221-4.047,2.177-6.803,1.248
		c-8.062-2.719-16.201-5.041-24.819-3.483c-4.862,0.88-9.651,2.164-14.474,3.266L421.084,122.125z"/>
	<path fill-rule="evenodd" clip-rule="evenodd" d="M742.258,127.492c15.25,7.834,13.172,33.122-0.151,41.198
		c5.573-5.85,9.585-12.449,9.788-20.709C752.102,139.608,748.655,132.886,742.258,127.492z"/>
	<path fill-rule="evenodd" clip-rule="evenodd" d="M421.001,122.024c-0.947,0.616-1.86,1.295-2.847,1.841
		c-13.001,7.192-18.085,19.369-14.039,33.681c0.25,0.887,0.519,1.769,0.59,2.707c-8.393-13.702,1.137-35.663,16.377-38.131
		C421.084,122.125,421.001,122.024,421.001,122.024z"/>
	<path fill-rule="evenodd" clip-rule="evenodd" d="M702.968,212.928c-1.384-2.158-3.844-4.259-3.961-6.484
		c-0.463-8.784-0.189-17.607-0.189-27.636c4.529,0.838,8.682,1.605,12.835,2.373c-0.057,0.366-0.112,0.733-0.169,1.1
		c-3.63-0.698-7.258-1.396-11.466-2.206c0,9.556-0.182,18.161,0.131,26.748c0.076,2.1,1.772,4.139,2.724,6.207
		C702.873,213.029,702.968,212.928,702.968,212.928z"/>
	<path fill-rule="evenodd" clip-rule="evenodd" d="M453.028,209.055c1.8-2.845,4.239-5.48,5.249-8.582
		c1.572-4.832-0.592-8.849-5.006-11.258c-4.465-2.437-9.125-4.516-13.698-6.752c0.223-0.435,0.446-0.869,0.669-1.305
		c5.668,3.137,11.884,5.589,16.861,9.584c5.91,4.743,3.116,15.294-4.157,18.214L453.028,209.055z"/>
	<path fill-rule="evenodd" clip-rule="evenodd" d="M115.579,110.09c-12.556,0-25.111,0-37.667,0
		c0.004-0.265,0.009-0.529,0.013-0.792c12.532,0,25.063,0,37.596,0C115.54,109.561,115.56,109.825,115.579,110.09z"/>
	<path fill-rule="evenodd" clip-rule="evenodd" d="M248.368,149.743c-1.086,9.299-2.428,20.799-3.458,29.624
		C242.957,172.601,244.708,156.573,248.368,149.743z"/>
	<path fill-rule="evenodd" clip-rule="evenodd" d="M320.471,134.62c-11.73-7.081-23.672-7.843-36.043-1.912
		C293.709,125.341,312.588,126.378,320.471,134.62z"/>
	<path fill-rule="evenodd" clip-rule="evenodd" d="M87.394,205.229c0-10.034,0-20.067,0-30.911c3.888,0.188,7.57,0.368,11.825,0.574
		c-0.709,0.655-0.888,0.943-1.02,0.924c-11.818-1.794-9.996-1.271-10.159,9.61c-0.099,6.602-0.018,13.205-0.018,19.808
		C87.812,205.231,87.603,205.23,87.394,205.229z"/>
	<path fill-rule="evenodd" clip-rule="evenodd" d="M344.566,182.59c0,11.593,0,23.188,0,35.025
		c-1.503,0.158-2.759,0.291-4.295,0.453c0.235-0.488,0.319-0.817,0.404-0.817c3.306-0.017,3.487-2.128,3.463-4.724
		c-0.091-9.951-0.037-19.902-0.037-29.854C344.257,182.646,344.411,182.617,344.566,182.59z"/>
	<path fill-rule="evenodd" clip-rule="evenodd" d="M389.028,132.1c2.674-1.755,5.349-3.508,8.023-5.262
		c0.344,0.312,0.688,0.624,1.032,0.937c0-2.198,0-4.395,0-6.933c-3.115-0.196-6.311-0.397-9.506-0.6
		c0.023-0.135,0.046-0.27,0.069-0.405c3.55,0,7.101,0,10.909,0c0,3.092,0,5.836,0,8.296c-3.651,1.333-7.137,2.604-10.621,3.877
		C388.937,132.011,389.028,132.1,389.028,132.1z"/>
	<path fill-rule="evenodd" clip-rule="evenodd" d="M478.649,137.8c-0.588,2.522-1.177,5.044-1.766,7.567
		c-0.213,0.013-0.426,0.026-0.639,0.039c-1.204-8.337-2.407-16.675-3.611-25.013c0.384-0.057,0.767-0.113,1.149-0.17
		c0.694,5.16,1.646,10.305,1.975,15.489c0.162,2.558,1.306,2.342,2.949,2.121L478.649,137.8z"/>
	<path fill-rule="evenodd" clip-rule="evenodd" d="M96.112,214.12c1.152,0.066,2.307,0.107,3.455,0.214
		c0.3,0.028,0.582,0.258,1.124,0.514c0,2.78,0,5.674,0,8.823c-7.235,0-14.277,0-21.319,0c-0.002-0.153-0.004-0.307-0.006-0.46
		c6.742,0,13.484,0,20.554,0c0-2.771,0-5.154,0-7.805c-1.503-0.307-2.892-0.589-4.279-0.871
		C95.798,214.396,95.955,214.259,96.112,214.12z"/>
	<path fill-rule="evenodd" clip-rule="evenodd" d="M439.858,224.85c7.565-1.415,17.625-3.298,25.7-4.81
		C458.051,224.65,447.752,225.466,439.858,224.85z"/>
	<path fill-rule="evenodd" clip-rule="evenodd" d="M138.875,159.189c5.94-7.785,6.429-16.761,5.484-26.031
		c2.388,9.555,1.639,18.557-4.67,26.576C139.677,159.749,139.284,159.465,138.875,159.189z"/>
	<path fill-rule="evenodd" clip-rule="evenodd" d="M319.762,224.705c-9.285,0.563-18.57,1.128-27.856,1.691
		c-0.02-0.266-0.04-0.53-0.061-0.796c9.188-0.591,18.376-1.182,27.566-1.772C319.528,224.121,319.645,224.413,319.762,224.705z"/>
	<path fill-rule="evenodd" clip-rule="evenodd" d="M455.188,133.097c-10.008-1.527-18.701-2.897-26.958,3.056
		C433.111,130.244,444.716,128.807,455.188,133.097z"/>
	<path fill-rule="evenodd" clip-rule="evenodd" d="M319.251,182.432c0,8.54,0,17.081,0,25.622c-0.178-0.018-0.355-0.034-0.534-0.051
		c0-8.506,0-17.012,0-25.518C318.896,182.468,319.073,182.449,319.251,182.432z"/>
	<path fill-rule="evenodd" clip-rule="evenodd" d="M587.147,119.087c6.295,0,12.59,0,18.886,0c-0.016,0.498-0.031,0.996-0.047,1.494
		c-6.274-0.502-12.549-1.004-18.833-1.523C587.144,119.04,587.147,119.087,587.147,119.087z"/>
	<path fill-rule="evenodd" clip-rule="evenodd" d="M452.946,208.956c-5.683,4.227-12.172,2.807-18.47,2.574
		c-1.445-0.053-2.873-0.552-4.222-0.348c7.591-0.71,15.182-1.42,22.773-2.128L452.946,208.956z"/>
	<path fill-rule="evenodd" clip-rule="evenodd" d="M478.707,137.833c0.211-5.559,0.241-11.136,0.809-16.658
		c0.094-0.908,2.552-1.572,4.599-2.737c-6.356,5.959-4.292,13.11-5.486,19.333C478.649,137.8,478.707,137.833,478.707,137.833z"/>
	<path fill-rule="evenodd" clip-rule="evenodd" d="M229.058,120.456c-6.207,0-12.415,0-18.621,0
		c-0.001-0.16-0.002-0.319-0.004-0.479c6.229,0,12.459,0,18.689,0C229.101,120.137,229.08,120.296,229.058,120.456z"/>
	<path fill-rule="evenodd" clip-rule="evenodd" d="M483.598,198.66c-0.345-5.675-0.689-11.35-1.034-17.024
		c0.385-0.019,0.769-0.037,1.153-0.055c0.318,5.823,0.637,11.646,0.955,17.47C484.313,198.921,483.956,198.79,483.598,198.66z"/>
	<path fill-rule="evenodd" clip-rule="evenodd" d="M112.033,126.567c-6.109-4.712-13.213-5.187-20.439-4.379
		c-1.283,0.144-3.319,2.281-3.35,3.538c-0.274,11.151-0.236,22.312-0.078,33.466c0.014,0.991,1.519,2.791,2.351,2.802
		c4.633,0.064,9.472,0.462,13.871-0.678c12.372-3.21,17.571-18.897,10.551-30.667c-0.763-1.281-1.682-2.469-2.529-3.701
		c0.936,0.545,2.224,0.86,2.752,1.671c5.032,7.715,5.448,15.986,1.706,24.186c-3.391,7.431-9.828,10.393-17.853,10.22
		c-3.777-0.082-7.557-0.015-11.888-0.015c0-13.401-0.035-26.3,0.076-39.198c0.007-0.887,1.053-2.495,1.688-2.532
		c7.407-0.434,14.996-1.733,21.691,2.935C111.276,124.699,111.56,125.77,112.033,126.567z"/>
	<path fill-rule="evenodd" clip-rule="evenodd" d="M713.674,167.146c-4.714,0.413-9.428,0.826-14.593,1.278
		c0-12.527,0-24.362,0-37.252c6.071,0.448,12.078,0.267,17.795,1.469c7.492,1.574,11.202,8.327,10.688,17.429
		c-0.557,9.829-5.319,15.67-14.03,17.207c2.099-1.265,4.3-2.371,6.259-3.807c6.672-4.889,7.26-11.879,6.132-19.228
		c-0.895-5.829-4.492-9.939-10.201-10.841c-5.09-0.804-10.406-0.169-15.671-0.169c0,11.242,0,22.265,0,33.913
		C704.83,167.146,709.252,167.146,713.674,167.146z"/>
</g>
</svg>
