<?xml version="1.0" encoding="utf-8"?>
<!-- Generator: Adobe Illustrator 16.0.0, SVG Export Plug-In . SVG Version: 6.00 Build 0)  -->
<!DOCTYPE svg PUBLIC "-//W3C//DTD SVG 1.1//EN" "http://www.w3.org/Graphics/SVG/1.1/DTD/svg11.dtd">
<svg version="1.1" id="Layer_1" xmlns="http://www.w3.org/2000/svg" xmlns:xlink="http://www.w3.org/1999/xlink" x="0px" y="0px"
	 width="500px" height="300px" viewBox="0 0 500 300" enable-background="new 0 0 500 300" xml:space="preserve">
<g>
	<path fill-rule="evenodd" clip-rule="evenodd" d="M55.966,162.391c-8.395-3.556-15.587-7.926-20.73-15.062
		c-3.545-4.92-5.269-10.354-5.037-16.478c0.049-1.239-0.726-2.842-1.649-3.733c-4.827-4.657-5.696-12.024-1.842-17.407
		c3.95-5.511,11.399-7.219,17.241-3.681c1.75,1.059,2.881,0.931,4.555-0.032c9.032-5.187,18.922-7.496,29.226-8.031
		c2.346-0.121,3.227-0.906,3.859-3.082c1.946-6.686,4.262-13.264,6.22-19.945c0.832-2.834,2.195-3.733,5.083-2.965
		c5.267,1.402,10.602,2.548,15.9,3.827c1.565,0.38,2.637,0.351,3.768-1.313c3.017-4.444,8.41-5.805,13.14-3.723
		c4.474,1.968,7.167,6.95,6.298,11.644c-0.963,5.19-5.091,8.859-10.271,9.128c-4.995,0.259-9.651-3.17-10.832-8.37
		c-0.459-2.017-1.333-2.731-3.266-3.121c-4.946-1-9.834-2.274-14.748-3.427c-0.183-0.044-0.395,0.042-0.918,0.111
		c-2.141,6.76-4.321,13.651-6.614,20.898c3.15,0.439,6.088,0.822,9.017,1.267c7.768,1.18,15.066,3.686,21.915,7.577
		c0.782,0.447,2.286,0.408,3.071-0.057c6.335-3.753,13.75-2.578,17.922,2.998c4.293,5.733,3.321,13.147-2.284,18.211
		c-0.719,0.649-1.467,1.79-1.43,2.672c0.521,12.636-6.37,20.836-16.221,27.211c-2.864,1.852-6.017,3.264-9.222,4.973
		c6.35,3.659,10.123,9.13,11.624,16.226c2.523,11.921-3.116,24.784-13.723,28.7c-1.719,0.637-2.546,3.684-4.042,6.015
		c2.245,0.365,3.807,0.553,5.343,0.879c6.721,1.422,11.098,6.834,10.508,12.799c-0.239,2.41-1.21,3.61-3.817,3.605
		c-21.441-0.055-42.879-0.05-64.318-0.006c-2.301,0.006-3.256-1.052-3.572-3.185c-0.877-5.916,3.377-11.56,10.046-13.135
		c1.565-0.371,3.178-0.528,4.98-0.815c-1.037-3.259-2.002-5.836-5.736-7.579c-8.958-4.178-13.708-16.385-11.402-26.804
		C45.591,172.029,49.142,166.291,55.966,162.391z M82.633,162.509c1.773-0.113,4.41-0.158,7.012-0.464
		c11.545-1.358,22.31-4.73,31.146-12.701c8.039-7.259,10.77-16.908,6.281-25.315c-2.254-4.217-5.718-8.165-9.511-11.108
		c-10.205-7.92-22.367-10.528-35.008-10.631c-13.284-0.106-25.913,2.671-36.825,10.784c-14.755,10.967-14.775,27.418-0.146,38.512
		c1.205,0.913,2.467,1.763,3.763,2.538C59.329,160.114,70.303,162.297,82.633,162.509z M60.748,163.99
		c-0.239,0.973-0.55,1.649-0.548,2.32c0.029,8.859-0.417,17.763,0.306,26.567c0.773,9.406,3.528,18.468,9.002,26.349
		c1.788,2.578,4.093,5.402,6.824,6.598c6.037,2.632,13.303-0.01,17.234-5.496c1.461-2.04,2.755-4.242,3.817-6.514
		c5.469-11.678,7.118-24.122,6.928-36.857c-0.067-4.306-0.612-8.606-0.953-13.09C88.937,167.921,74.987,167.896,60.748,163.99z
		 M109.173,168.691c-0.682,11.046-1.368,22.127-2.03,32.857C117.745,197.139,119.266,177.802,109.173,168.691z M57.099,201.691
		c-0.627-5.401-1.514-10.854-1.83-16.334c-0.318-5.521-0.069-11.071-0.069-16.992C44.709,177.506,46.137,196.581,57.099,201.691z
		 M127.619,80.74c0.03-3.508-2.78-6.417-6.229-6.446c-3.432-0.032-6.385,2.874-6.42,6.32c-0.034,3.499,2.771,6.333,6.299,6.363
		C124.863,87.007,127.589,84.33,127.619,80.74z M113.363,226.086c-0.469-4.045-3.141-6.751-7.227-7.521
		c-5.116-0.958-7.205,0.439-10.994,7.521C101.242,226.086,107.222,226.086,113.363,226.086z M68.822,226.238
		c-4.795-7.855-7.894-9.392-13.414-6.903c-3.469,1.561-5.18,4.262-4.377,6.903C56.845,226.238,62.659,226.238,68.822,226.238z
		 M122.024,110.134c1.96,2.138,4.01,4.079,5.691,6.296c1.729,2.281,3.096,4.834,4.625,7.269c3.424-2.951,4.121-7.382,1.748-11.059
		C131.569,108.736,127.016,107.685,122.024,110.134z M41.45,109.917c-3.718-2.309-8.387-1.412-11.085,2.38
		c-2.583,3.627-2.077,8.133,0.926,10.732C34.678,118.659,38.075,114.272,41.45,109.917z"/>
	<path fill-rule="evenodd" clip-rule="evenodd" d="M314.456,224.496c-3.477,1.648-6.8,4.009-10.469,4.834
		c-15.648,3.501-29.994-5.008-35.213-20.918c-4.425-13.476-3.082-26.452,4.602-38.645c8.617-13.673,28.581-17.52,40.956-5.659
		c0.064-1.407,0.153-2.419,0.153-3.437c0.01-8.8-0.069-17.597,0.034-26.394c0.069-5.674,3.758-8.693,8.766-7.471
		c2.632,0.644,4.207,2.326,4.774,4.898c0.257,1.168,0.271,2.407,0.271,3.617c0.015,28.716,0.005,57.436,0.021,86.156
		c0,2.934-0.316,5.669-3.077,7.446C320.949,231.705,316.786,229.878,314.456,224.496z M315.77,193.233
		c0.262-0.074,0.523-0.148,0.779-0.223c-1.313-4.711-2.128-9.639-4.063-14.078c-2.642-6.063-7.556-9.57-14.488-9.634
		c-7.007-0.064-11.782,3.6-14.503,9.609c-4.459,9.855-4.637,19.925,0.02,29.865c2.687,5.728,7.284,8.868,13.58,9.051
		c6.464,0.178,11.535-2.593,14.813-8.266C314.816,204.521,315.513,198.917,315.77,193.233z"/>
	<path fill-rule="evenodd" clip-rule="evenodd" d="M386.719,163.852c0-9.574-0.035-18.865,0.029-28.154
		c0.015-1.792,0.173-3.674,0.74-5.35c0.845-2.474,3.956-4.079,6.637-3.832c3.126,0.289,5.472,2.143,6.153,4.965
		c0.212,0.876,0.281,1.802,0.281,2.706c0.015,29.408,0.029,58.814-0.01,88.22c-0.005,5.328-3.886,8.631-8.558,7.521
		c-2.444-0.583-3.887-2.119-5.294-5.422c-3.476,1.648-6.804,4.01-10.473,4.824c-15.931,3.545-30.686-5.506-35.524-21.747
		c-4.049-13.569-2.637-26.576,5.407-38.521c9.698-14.395,29.89-15.678,39.652-5.561C385.874,163.62,386.096,163.63,386.719,163.852z
		 M388.688,193.109c-1.11-4.39-1.748-9.051-3.481-13.269c-2.74-6.671-7.816-10.681-15.445-10.522
		c-7.57,0.158-12.015,4.617-14.735,11.125c-2.425,5.793-3.097,11.931-2.321,18.133c0.727,5.787,2.425,11.367,6.879,15.451
		c7.94,7.273,21.327,3.96,25.56-6.538C386.921,203.074,387.483,198.171,388.688,193.109z"/>
	<path fill-rule="evenodd" clip-rule="evenodd" d="M211.851,199.148c-0.419,11.215,9.108,19.629,20.577,18.671
		c5.474-0.459,10.434-2.168,14.819-5.516c1.042-0.795,2.143-1.516,3.244-2.228c2.278-1.471,4.612-2.182,6.931-0.113
		c1.891,1.689,2.444,5.057,1.17,7.556c-0.538,1.057-1.259,2.099-2.133,2.898c-11.494,10.503-30.636,13.021-43.368,5.105
		c-8.869-5.516-13.254-14.028-14.886-23.919c-2.284-13.842,0.904-26.429,11.021-36.463c13.553-13.437,36.07-9.92,45.988,6.834
		c3.353,5.664,5.249,11.782,5.624,18.35c0.36,6.307-1.916,8.79-8.207,8.81c-12.429,0.05-24.858,0.015-37.285,0.015
		C214.249,199.148,213.147,199.148,211.851,199.148z M211.92,187.885c11.794,0,23.334,0,34.875,0
		c-0.2-11.49-7.525-18.883-18.12-18.532C218.757,169.679,211.397,177.768,211.92,187.885z"/>
	<path fill-rule="evenodd" clip-rule="evenodd" d="M448.592,157.551c0-4.592-0.069-8.916,0.02-13.236
		c0.094-4.296,1.887-6.572,5.427-7.212c4.79-0.859,8.231,1.78,8.37,6.629c0.133,4.513,0.029,9.034,0.029,12.832
		c3.358,1.229,6.326,1.99,8.913,3.432c0.938,0.528,1.318,2.677,1.344,4.099c0.063,3.817-1.887,4.943-10.241,6.202
		c0,1.027,0,2.113,0,3.195c0,16.271,0.02,32.541-0.016,48.812c-0.01,5.205-3.086,8.197-7.866,7.748
		c-2.933-0.271-4.889-1.866-5.525-4.755c-0.346-1.561-0.435-3.205-0.439-4.81c-0.029-15.664-0.015-31.327-0.015-46.99
		c0-1.082,0-2.168,0-3.427c-4.814-0.104-10.094-0.05-10.325-6.05C438.015,157.383,443.644,157.67,448.592,157.551z"/>
	<path fill-rule="evenodd" clip-rule="evenodd" d="M174.937,165.659c2.568-2.276,4.647-4.528,7.113-6.202
		c3.561-2.415,7.523-3.679,11.619-1.136c4.77,2.963,4.489,9.185-0.526,11.664c-1.795,0.889-3.75,1.471-5.664,2.099
		c-8.656,2.834-12.468,7.787-12.592,17.001c-0.141,10.716-0.035,21.437-0.062,32.151c-0.005,1.309-0.013,2.652-0.294,3.921
		c-0.684,3.076-3.247,4.968-6.417,4.929c-3.249-0.04-6.02-2.153-6.587-5.2c-0.257-1.383-0.279-2.819-0.279-4.231
		c-0.018-18.099-0.015-36.196-0.007-54.299c0-0.908,0.015-1.817,0.099-2.721c0.373-3.985,2.921-6.444,6.639-6.444
		c3.743-0.005,6.306,2.385,6.795,6.351C174.848,164.139,174.868,164.741,174.937,165.659z"/>
	<path fill-rule="evenodd" clip-rule="evenodd" d="M413.922,193.229c0-9.595-0.055-19.189,0.024-28.789
		c0.045-5.891,5.309-9.308,10.113-6.632c3.057,1.704,3.556,4.687,3.556,7.822c0.005,15.86,0,31.717,0,47.577
		c0,3.027,0.044,6.06-0.01,9.091c-0.089,4.835-2.83,7.871-6.978,7.822c-3.901-0.05-6.642-3.106-6.682-7.802
		C413.867,212.625,413.922,202.927,413.922,193.229z"/>
	<path fill-rule="evenodd" clip-rule="evenodd" d="M433.299,139.547c-0.02,6.896-5.615,12.488-12.513,12.503
		c-7.047,0.021-12.627-5.654-12.533-12.745c0.094-6.908,5.738-12.446,12.622-12.382
		C427.724,126.987,433.318,132.671,433.299,139.547z M420.662,133.503c-3.283,0.04-5.97,2.696-6.005,5.943
		c-0.034,3.301,2.884,6.214,6.178,6.163c3.373-0.052,6.015-2.886,5.906-6.333C426.643,135.925,424.045,133.461,420.662,133.503z"/>
	<path fill-rule="evenodd" clip-rule="evenodd" d="M99.509,118.378c4.237-0.027,7.782,3.429,7.794,7.602
		c0.01,4.039-3.686,7.849-7.661,7.901c-3.923,0.049-7.755-3.755-7.822-7.77C91.749,121.987,95.312,118.405,99.509,118.378z"/>
	<path fill-rule="evenodd" clip-rule="evenodd" d="M57.077,125.864c0.054-4.276,3.472-7.56,7.788-7.486
		c4.273,0.076,7.521,3.506,7.427,7.849c-0.092,4.166-3.768,7.772-7.788,7.642C60.402,133.735,57.025,130.093,57.077,125.864z"/>
	<path fill-rule="evenodd" clip-rule="evenodd" d="M81.925,155.546c-5.088-1.427-10.197-2.795-15.253-4.33
		c-1-0.307-2.124-1.082-2.612-1.96c-0.528-0.951-0.383-2.279-0.531-3.442c1.099,0.032,2.481-0.358,3.249,0.163
		c8.083,5.461,16.772,4.849,25.582,2.656c1.691-0.422,3.111-1.854,4.785-2.452c1.116-0.397,2.462-0.143,3.704-0.18
		c-0.335,1.21-0.293,3.027-1.082,3.521c-2.607,1.629-5.404,3.145-8.335,4.014c-2.96,0.879-6.165,0.938-9.261,1.354
		C82.088,155.106,82.006,155.324,81.925,155.546z"/>
</g>
</svg>
