<?xml version="1.0" encoding="utf-8"?>
<!-- Generator: Adobe Illustrator 16.0.0, SVG Export Plug-In . SVG Version: 6.00 Build 0)  -->
<!DOCTYPE svg PUBLIC "-//W3C//DTD SVG 1.1//EN" "http://www.w3.org/Graphics/SVG/1.1/DTD/svg11.dtd">
<svg version="1.1" id="Layer_1" xmlns="http://www.w3.org/2000/svg" xmlns:xlink="http://www.w3.org/1999/xlink" x="0px" y="0px"
	 width="500px" height="500px" viewBox="0 0 500 500" enable-background="new 0 0 500 500" xml:space="preserve">
<g>
	<path fill-rule="evenodd" clip-rule="evenodd" fill="#194695" d="M121.233,380.657c-14.324-0.124-28.647-0.312-42.973-0.358
		c-19.18-0.062-38.36-0.111-57.539,0.061c-4.024,0.036-5.816-0.644-5.81-5.312c0.132-93.38,0.104-186.761,0.07-280.142
		c-0.001-2.439,0.473-4.407,2.309-6.235C41.45,64.608,65.54,40.477,89.667,16.384c0.517-0.516,1.287-0.778,1.939-1.16
		c1.965,1.314,2.572,3.246,2.653,5.502c0.109,3.1,0.114,6.199,0.114,9.298c0.003,70.143-0.008,140.285,0.051,210.426
		c0.002,2.356-1.292,5.801,1.324,6.796c2.059,0.782,3.65-2.386,5.254-3.975c8.951-8.86,17.726-17.9,26.79-26.642
		c3.917-3.778,5.643-7.927,5.601-13.37c-0.149-19.181-0.137-38.365,0-57.547c0.021-2.995-0.664-6.323,2.276-8.601
		c4.53,0,3.794,3.557,3.849,6.168c0.24,11.607,0.051,23.22,0.114,34.83c0.047,8.683-0.198,17.373,0.199,27.264
		c24.374-23.07,46.335-47.165,70.343-69.148c0.628-0.628,1.217-1.299,2.013-1.729c5.865-1.897,11.91-0.804,17.874-0.951
		c7.357-0.182,14.725-0.118,22.086,0.007c2.363,0.04,4.99,0.115,6.022,2.604c1.028,2.478-0.733,4.452-2.377,6.129
		c-10.714,10.932-21.594,21.701-32.418,32.523c-65.912,65.893-131.801,131.811-197.707,197.71c-0.945,0.945-2.08,1.747-2.677,3.211
		c1.173,1.359,2.808,0.777,4.203,0.78c29.065,0.035,58.13-0.055,87.194,0.11c5.067,0.029,8.789-1.568,12.248-5.204
		c45.274-47.589,92.379-93.364,138.726-139.892c55.108-55.323,110.393-110.471,165.659-165.638c2.447-2.443,4.724-5.908,9.213-4.146
		c0.419,0.573,0.68,1.193,0.802,1.89c0.264,2.529,0.166,5.05,0.166,7.566c0.007,94.157,0.006,188.312,0.005,282.468
		c0,1.356,0.012,2.712-0.01,4.068c-0.112,7.157-0.767,7.858-8.153,7.875c-20.536,0.049-41.072,0.053-61.608-0.001
		c-7.284-0.02-8.086-0.804-8.116-7.96c-0.07-16.854-0.086-33.71,0.014-50.564c0.033-5.435-0.443-10.825-0.732-16.212
		c-1.757-4.265-1.101-8.772-1.157-13.198c-0.117-9.096,0.057-18.196-0.083-27.512c-2.484,1.28-3.924,3.383-5.658,5.117
		c-74.524,74.557-149.104,149.058-223.622,223.623c-1.506,1.506-2.887,3.199-4.725,4.285c-1.962,1.159-4.142,2.602-5.886-0.446
		c-0.124-31.917-0.017-63.816-0.063-95.716C121.402,384.903,121.568,382.772,121.233,380.657z"/>
	<path fill-rule="evenodd" clip-rule="evenodd" fill="#7A8DC6" d="M136.743,137.495c-1.198,1.974-0.671,4.159-0.675,6.245
		c-0.042,21.107-0.101,42.212,0.044,63.318c0.025,3.78-1.073,6.532-3.787,9.19c-12.032,11.791-23.862,23.786-35.81,35.662
		c-1.164,1.157-2.021,2.879-4.904,2.975c0-79.945,0-159.804-0.002-239.66c1.93-0.068,3.863-0.195,5.796-0.196
		c127.29-0.009,254.579,0.036,381.869-0.153c5.73-0.009,6.841,1.509,6.834,6.987c-0.169,127.484-0.125,254.968-0.18,382.45
		c0,2.005,0.925,4.249-0.837,6.052c-3.425,2.084-7.165,2.67-11.131,2.668c-73.823-0.021-147.645,0.019-221.468-0.083
		c-3.334-0.005-7.731,1.185-9.446-2.663c-1.892-4.244,2.344-6.536,4.789-9.023c11.272-11.469,22.659-22.827,34.1-34.129
		c2.176-2.149,4.206-4.688,7.763-4.556c7.916,0.739,15.849,0.818,23.787,0.729c40.067-0.445,80.106,2.039,120.18,1.178
		c6.358-0.137,6.377-0.031,6.377-6.197c0.003-96.683,0.007-193.365-0.027-290.047c-0.001-1.876,0.622-3.885-0.674-5.628
		c-0.002-0.395-0.005-0.789-0.007-1.185c-5.646,1.659-11.438,1.613-17.251,1.61c-89.915-0.026-179.83-0.022-269.746-0.015
		c-12.493,0.001-12.57,0.085-12.574,12.709c-0.005,16.277-0.074,32.555,0.034,48.833c0.05,7.572,1.177,8.668,8.882,8.716
		c18.603,0.112,37.207-0.074,55.81,0.119c2.952,0.032,6.391-0.72,8.249,2.809c-0.385,0.369-0.77,0.738-1.155,1.108
		c-3.494,1.835-7.212,2.485-11.156,2.473c-18.122-0.047-36.243,0.009-54.364-0.041C142.782,139.741,139.467,139.825,136.743,137.495
		z"/>
	<path fill-rule="evenodd" clip-rule="evenodd" fill="#E6E7E8" d="M289.198,363.875c-14.957,15.283-29.912,30.565-45.496,46.491
		c80.816,0,161.103,0,241.39-0.002c-0.841,1.032-1.601,2.147-2.539,3.086c-23.143,23.165-46.327,46.289-69.428,69.495
		c-2.025,2.034-3.963,3.119-6.989,3.117c-93.392-0.089-186.785-0.07-280.177-0.091c-1.339,0-2.677-0.266-4.014-0.406
		c0.009-1,0.539-1.562,1.483-1.782c2.246-2.105,4.553-4.151,6.73-6.328C206.3,401.334,282.431,325.2,358.568,249.072
		c1.459-1.459,2.979-2.856,5.551-5.316c0,15.709,0,30.12,0,44.53c0.22,1.14-0.241,2.147-0.605,3.175
		c-1.867,2.945-4.159,5.519-6.636,7.977c-19.184,19.028-38.234,38.188-57.316,57.319c-2.462,2.469-5.007,4.795-7.964,6.65
		C290.842,363.795,290.026,363.869,289.198,363.875z"/>
	<path fill-rule="evenodd" clip-rule="evenodd" fill="#194695" d="M123.427,483.783c-0.493,0.595-0.986,1.19-1.481,1.783
		c-1.331-1.726-0.721-3.736-0.723-5.606c-0.034-33.106-0.015-66.212,0.001-99.311c1.212,2.174,0.749,4.541,0.75,6.824
		c0.03,29.718,0.008,59.436,0.041,89.153C122.018,479.076,121.425,481.703,123.427,483.783z"/>
	<path fill-rule="evenodd" clip-rule="evenodd" fill="#E6E7E8" d="M212.738,136.209c-23.041-0.082-46.083-0.33-69.12-0.124
		c-5.267,0.048-6.864-1.309-6.783-6.698c0.313-20.913,0.229-41.834,0.045-62.75c-0.038-4.336,0.909-6.066,5.713-6.06
		c97.42,0.132,194.841,0.098,292.262,0.112c1.517,0,3.12-0.314,4.479,0.737c-1.478,1.537-2.928,3.1-4.434,4.606
		C332,168.975,229.078,271.896,126.257,374.918c-3.29,3.298-6.519,4.622-11.15,4.593c-30.621-0.193-61.245-0.086-91.867-0.132
		c-2.042-0.002-4.19,0.572-6.736-0.834C97.01,298.04,177.327,217.724,258.841,136.209
		C242.335,136.209,227.537,136.209,212.738,136.209z"/>
</g>
</svg>
