<?xml version="1.0" encoding="utf-8"?>
<!-- Generator: Adobe Illustrator 16.0.0, SVG Export Plug-In . SVG Version: 6.00 Build 0)  -->
<!DOCTYPE svg PUBLIC "-//W3C//DTD SVG 1.1//EN" "http://www.w3.org/Graphics/SVG/1.1/DTD/svg11.dtd">
<svg version="1.1" xmlns="http://www.w3.org/2000/svg" xmlns:xlink="http://www.w3.org/1999/xlink" x="0px" y="0px" width="300px"
	 height="300px" viewBox="30 30 300 300" enable-background="new 30 30 300 300" xml:space="preserve">
<g id="Layer_3_1_">
	<circle fill="#FAA767" cx="180" cy="180" r="140"/>
</g>
<g id="Layer_2">
	<g>
		<g>
			<g id="XMLID_1_">
				<g>
					<path fill="#FF6C00" d="M270.85,152.13l45.391,60.21c-3.67,15.561-9.95,30.13-18.34,43.2l-76.601-91.2v-10.6
						c0-5.03,4.09-9.12,9.13-9.12h31.45C266.37,144.62,270.1,147.87,270.85,152.13z"/>
					<path fill="#FF6C00" d="M221.3,164.34l76.601,91.2c-7.511,11.69-16.71,22.19-27.25,31.16L151,164.75v-13.64
						c0-5.88,4.77-10.64,10.65-10.64h36.7c5.351,0,9.79,3.95,10.54,9.09L221.3,164.34z"/>
					<path fill="#FF6C00" d="M151,164.75L270.65,286.7c-14.66,12.46-31.92,21.96-50.851,27.56l-114.67-69.38
						c-3.98-0.89-6.95-4.54-6.95-8.899V205.67h-0.05c-5.04,0-9.13-4.09-9.13-9.13v-42.8c0-5.03,4.09-9.12,9.13-9.12h31.44
						c4.46,0,8.18,3.21,8.97,7.43L151,164.75z"/>
				</g>
				<g>
				</g>
			</g>
		</g>
	</g>
</g>
<g id="Layer_6">
	<g>
		<g>
			<path fill="#FFFFFF" d="M198.35,140.467h-36.699c-5.88,0-10.649,4.765-10.649,10.647v49.939c0,5.882,4.769,10.652,10.649,10.652
				h0.06v35.374c0,5.88,4.634,10.649,10.354,10.649h15.873c5.716,0,10.354-4.769,10.354-10.649v-35.374h0.059
				c5.879,0,10.649-4.769,10.649-10.652v-49.939C208.996,145.232,204.229,140.467,198.35,140.467z"/>
			<circle fill="#FFFFFF" cx="180" cy="119.652" r="17.381"/>
		</g>
		<g>
			<path fill="#FFFFFF" d="M261.875,144.619h-31.446c-5.042,0-9.127,4.086-9.127,9.125v42.794c0,5.045,4.085,9.129,9.127,9.129
				h0.052v30.311c0,5.041,3.971,9.125,8.868,9.125h13.604c4.898,0,8.87-4.084,8.87-9.125v-30.311h0.048
				c5.045,0,9.129-4.088,9.129-9.13v-42.795C271,148.705,266.916,144.619,261.875,144.619z"/>
			<circle fill="#FFFFFF" cx="246.152" cy="126.785" r="14.895"/>
		</g>
		<g>
			<path fill="#FFFFFF" d="M129.571,144.619H98.126c-5.04,0-9.126,4.086-9.126,9.124v42.795c0,5.042,4.086,9.13,9.126,9.13h0.05
				v30.309c0,5.043,3.975,9.127,8.871,9.127h13.603c4.899,0,8.871-4.084,8.871-9.127v-30.309h0.05c5.04,0,9.126-4.088,9.126-9.13
				v-42.795C138.695,148.705,134.609,144.619,129.571,144.619z"/>
			<circle fill="#FFFFFF" cx="113.848" cy="126.784" r="14.893"/>
		</g>
	</g>
</g>
</svg>
