<?xml version="1.0" encoding="utf-8"?>
<!-- Generator: Adobe Illustrator 16.0.0, SVG Export Plug-In . SVG Version: 6.00 Build 0)  -->
<!DOCTYPE svg PUBLIC "-//W3C//DTD SVG 1.1//EN" "http://www.w3.org/Graphics/SVG/1.1/DTD/svg11.dtd">
<svg version="1.1" id="Layer_1" xmlns="http://www.w3.org/2000/svg" xmlns:xlink="http://www.w3.org/1999/xlink" x="0px" y="0px"
	 width="100px" height="100px" viewBox="0 0 100 100" enable-background="new 0 0 100 100" xml:space="preserve">
<g id="XMLID_1_">
	<g>
		<polygon fill="#E99863" points="24.15,37.88 22.77,44.95 17.6,47.17 12.16,49.49 12.89,44.36 18.98,35.28 		"/>
		<polygon fill="#9B5224" points="32,38.39 26.08,46.48 25.32,45.54 26.71,38.37 31.28,37.93 		"/>
		<polygon fill="#E99863" points="44.61,37.26 37.94,45.85 28.95,46.98 34.77,39.03 38.59,36.81 		"/>
		<polygon fill="#E99863" points="42.57,17.87 44.59,20.1 42.68,30.46 42.67,30.47 37.55,34.39 33.91,36.51 32.3,35.48 32.28,35.47 
			36.72,20.38 42.02,17.27 		"/>
		<polygon fill="#9B5224" points="38.08,48.46 65.11,81.71 59.88,82.06 49.32,75.54 28.62,49.66 		"/>
		<path fill="#9B5224" d="M25.08,49.48L46.83,76.6L43.08,82.2l-6.68,0.81L12.6,52.14l10.37-4.43l0.55-0.23l1.56,1.98
			c0,0.01,0,0.01,0,0.01S25.08,49.47,25.08,49.48z"/>
		<path fill="#4E2E19" d="M35.4,18.14l6.22-3.66c0.01-0.01,0.03-0.01,0.04-0.02c0.08-0.04,0.16-0.06,0.25-0.09
			c0.05-0.01,0.1-0.04,0.15-0.05c0.13-0.02,0.27-0.03,0.4-0.01l21.56,3.1c0.021,0.01,0.03,0.01,0.04,0.01
			c0.04,0.01,0.07,0.02,0.11,0.03c0.061,0.01,0.11,0.03,0.17,0.06c0.04,0.01,0.07,0.03,0.11,0.04c0.069,0.04,0.13,0.08,0.189,0.13
			c0.021,0.02,0.04,0.03,0.051,0.05c0.069,0.06,0.13,0.12,0.18,0.19c0.01,0.01,0.02,0.02,0.03,0.03l18.85,26.34
			c0.15,0.21,0.23,0.46,0.24,0.72l0.74,22.26c0.02,0.08,0.029,0.171,0.029,0.25c0,0.721-0.59,1.301-1.31,1.301h-0.01
			c-0.181,0-0.36-0.03-0.54-0.11l-11.96-5.34c-0.21-0.09-0.391-0.24-0.53-0.43L48.86,33.07l-4.61-0.53l-1.58-2.07l0.01-0.01
			l1.91-10.36l-2.02-2.23l-0.55-0.6l-5.3,3.11L35.4,18.14z"/>
		<path fill="#4E2E19" d="M22.77,44.95l1.38-7.07l-5.17-2.6l-6.09,9.08l-0.73,5.13l5.44-2.32L22.77,44.95z M32,38.39l-0.72-0.46
			l-4.57,0.44l-1.39,7.17l0.76,0.94L32,38.39z M65.11,81.71L38.08,48.46l-9.46,1.2l20.7,25.88l10.56,6.52L65.11,81.71z M44.61,37.26
			l-6.02-0.45l-3.82,2.22l-5.82,7.95l8.99-1.13L44.61,37.26z M48.83,78.31l-3.92,5.841c-0.21,0.319-0.55,0.52-0.93,0.569l-8,0.971
			c-0.05,0.01-0.11,0.01-0.16,0.01c-0.4,0-0.78-0.19-1.03-0.51L9.51,52.4c-0.01-0.021-0.02-0.03-0.03-0.04
			c-0.05-0.08-0.1-0.16-0.13-0.24c-0.02-0.04-0.02-0.07-0.04-0.101c-0.02-0.069-0.04-0.14-0.05-0.21
			c-0.01-0.04-0.01-0.079-0.01-0.119c0-0.07,0-0.141,0-0.21c0-0.021,0-0.04,0-0.061l1.1-7.72c0.03-0.19,0.1-0.38,0.21-0.54
			l6.9-10.29c0.01-0.02,0.02-0.04,0.04-0.06c0.02-0.03,0.05-0.06,0.08-0.09c0.02-0.03,0.05-0.06,0.08-0.08
			c0.03-0.03,0.05-0.05,0.08-0.07c0.04-0.03,0.07-0.05,0.11-0.08c0.03-0.02,0.05-0.03,0.08-0.05c0.04-0.02,0.08-0.04,0.13-0.05
			c0.02-0.01,0.06-0.02,0.09-0.04c0.04-0.01,0.08-0.02,0.12-0.03c0.04-0.01,0.07-0.01,0.1-0.02c0.05,0,0.09-0.01,0.13-0.01
			s0.07,0,0.11,0c0.04,0.01,0.08,0.01,0.12,0.02c0.02,0,0.04,0,0.07,0l11.04,2.22l4.52-15.38c0.09-0.32,0.3-0.59,0.59-0.75
			l0.45-0.26l1.32,2.24l-4.44,15.09l0.02,0.01l1.61,1.03l3.64-2.12l5.12-3.92l1.58,2.07l-2.46,1.89l5.45,0.4
			c0.02,0,0.05,0.02,0.07,0.02c0.08,0.01,0.15,0.02,0.22,0.05c0.04,0.01,0.08,0.02,0.11,0.04c0.07,0.03,0.13,0.06,0.19,0.1
			c0.03,0.02,0.07,0.04,0.1,0.06c0.05,0.05,0.11,0.09,0.15,0.15c0.03,0.02,0.06,0.05,0.09,0.08c0.01,0.02,0.02,0.03,0.03,0.04
			l21.34,29.59c0.17,0.24,0.26,0.53,0.25,0.83L69.02,82.9c0,0.02-0.01,0.029-0.01,0.05C69,83.03,68.98,83.1,68.96,83.18
			c-0.01,0.051-0.02,0.101-0.04,0.141c-0.01,0.02-0.01,0.029-0.01,0.04c-0.03,0.06-0.07,0.109-0.101,0.159
			c-0.02,0.04-0.05,0.091-0.079,0.131c-0.051,0.069-0.12,0.13-0.2,0.189c-0.021,0.021-0.04,0.05-0.061,0.061
			c-0.1,0.08-0.22,0.13-0.34,0.17c0,0.01-0.01,0.01-0.01,0.01c-0.03,0.01-0.061,0.01-0.08,0.01c-0.08,0.03-0.16,0.05-0.24,0.05
			l-8.16,0.551c-0.029,0-0.06,0-0.09,0c-0.24,0-0.47-0.07-0.68-0.19L48.83,78.31z M43.08,82.2l3.75-5.601L25.08,49.48
			c0-0.01,0-0.01,0-0.01s0,0,0-0.01l-1.56-1.98l-0.55,0.23L12.6,52.14l23.8,30.87L43.08,82.2z"/>
	</g>
	<g>
	</g>
</g>
<path fill="#9B5224" d="M81.848,70.877l-10.203-4.859l-0.332,9.856c-0.016,0.453,0.199,0.907,0.604,1.176s0.901,0.29,1.313,0.101
	l8.604-3.971c0.434-0.199,0.734-0.638,0.738-1.146C82.575,71.523,82.279,71.082,81.848,70.877z"/>
</svg>
