<?xml version="1.0" encoding="utf-8"?>
<!-- Generator: Adobe Illustrator 16.0.0, SVG Export Plug-In . SVG Version: 6.00 Build 0)  -->
<!DOCTYPE svg PUBLIC "-//W3C//DTD SVG 1.1//EN" "http://www.w3.org/Graphics/SVG/1.1/DTD/svg11.dtd">
<svg version="1.1" id="Layer_1" xmlns="http://www.w3.org/2000/svg" xmlns:xlink="http://www.w3.org/1999/xlink" x="0px" y="0px"
	 width="100px" height="100px" viewBox="0 0 100 100" enable-background="new 0 0 100 100" xml:space="preserve">
<g id="XMLID_1_">
	<g>
		<polygon fill="#948F8F" points="25.48,14 25.48,34.69 16.52,29.52 		"/>
		<polygon fill="#706A6A" points="24.48,36.42 6.56,46.76 15.52,31.25 		"/>
		<polygon fill="#706A6A" points="24.48,63.58 15.52,68.75 6.56,53.24 		"/>
		<polygon fill="#948F8F" points="25.48,65.32 25.48,86 16.52,70.49 		"/>
		<polygon fill="#948F8F" points="49,78.89 49,89.24 31.07,89.24 		"/>
		<polygon fill="#706A6A" points="68.93,89.24 51,89.24 51,78.89 		"/>
		<polygon fill="#706A6A" points="83.48,70.49 74.52,86 74.52,65.32 		"/>
		<polygon fill="#948F8F" points="93.44,53.24 84.48,68.75 75.52,63.58 		"/>
		<polygon fill="#948F8F" points="84.48,31.25 93.44,46.76 75.52,36.42 		"/>
		<polygon fill="#706A6A" points="74.52,14 83.48,29.51 74.52,34.68 		"/>
		<polygon fill="#706A6A" points="68.93,10.76 51,21.11 51,10.76 		"/>
		<polygon fill="#948F8F" points="49,10.76 49,21.11 31.07,10.76 		"/>
		<polygon fill="#B8B5B5" points="48,22.84 27.48,34.69 27.48,11 		"/>
		<polygon fill="#B8B5B5" points="25.48,38.16 25.48,61.84 4.97,50 		"/>
		<polygon fill="#B8B5B5" points="48,77.16 27.48,89 27.48,65.31 		"/>
		<polygon fill="#B8B5B5" points="72.52,65.31 72.52,89 52,77.16 		"/>
		<polygon fill="#B8B5B5" points="95.03,50 74.52,61.84 74.52,38.16 		"/>
		<polygon fill="#B8B5B5" points="72.52,11 72.52,34.69 52,22.84 		"/>
		<polygon fill="#DBDADA" points="72.52,61.85 72.52,63 71.51,63.58 51,75.42 50,76 49,75.42 28.49,63.58 27.48,63 27.48,61.85 
			27.48,38.15 27.48,37 28.48,36.42 49,24.58 50,24 51,24.58 71.51,36.42 72.52,37 72.52,38.15 		"/>
		<path fill="#53504F" d="M27.48,89L48,77.16L27.48,65.31V89z M48,22.84L27.48,11v23.69L48,22.84z M25.48,14l-8.96,15.52l8.96,5.17
			V14z M25.48,65.32l-8.96,5.17L25.48,86V65.32z M84.48,68.75l8.96-15.51L75.52,63.58L84.48,68.75z M93.44,46.76l-8.96-15.51
			l-8.961,5.17L93.44,46.76z M49,89.24V78.89L31.07,89.24H49z M49,21.11V10.76H31.07L49,21.11z M25.61,7.76h48.78L98.77,50
			L74.39,92.24H25.61L1.23,50L25.61,7.76z M51,21.11l17.93-10.35H51V21.11z M51,89.24h17.93L51,78.89V89.24z M72.52,89V65.31
			L52,77.16L72.52,89z M72.52,34.69V11L52,22.84L72.52,34.69z M72.52,61.85v-23.7V37l-1.01-0.58L51,24.58L50,24l-1,0.58L28.48,36.42
			l-1,0.58v1.15v23.7V63l1.01,0.58L49,75.42L50,76l1-0.58l20.51-11.84L72.52,63V61.85z M74.52,34.68l8.961-5.17L74.52,14V34.68z
			 M95.03,50L74.52,38.16v23.68L95.03,50z M74.52,65.32V86l8.961-15.51L74.52,65.32z M24.48,63.58L6.56,53.24l8.96,15.51
			L24.48,63.58z M15.52,31.25L6.56,46.76l17.92-10.34L15.52,31.25z M25.48,38.16L4.97,50l20.51,11.84V38.16z"/>
	</g>
	<g>
	</g>
</g>
</svg>
