<?xml version="1.0" encoding="utf-8"?>
<!-- Generator: Adobe Illustrator 16.0.0, SVG Export Plug-In . SVG Version: 6.00 Build 0)  -->
<!DOCTYPE svg PUBLIC "-//W3C//DTD SVG 1.1//EN" "http://www.w3.org/Graphics/SVG/1.1/DTD/svg11.dtd">
<svg version="1.1" id="Your_Icon" xmlns="http://www.w3.org/2000/svg" xmlns:xlink="http://www.w3.org/1999/xlink" x="0px" y="0px"
	 width="100px" height="100px" viewBox="0 0 100 100" enable-background="new 0 0 100 100" xml:space="preserve">
<g id="XMLID_1_">
	<g>
		<polygon fill="#C3EBD8" points="29.65,75.05 30.88,85.03 27.8,82.7 		"/>
		<polygon fill="#C3EBD8" points="30.73,60.97 39.24,77.09 30.93,69.15 		"/>
		<polygon fill="#C3EBD8" points="73.93,57.4 67.96,62.01 62.44,49.72 		"/>
		<polygon fill="#A5E0C4" points="30.1,33.78 30.99,42.35 21.3,37.23 		"/>
		<polygon fill="#A5E0C4" points="66.34,39.62 73.26,54.59 61.51,46.74 		"/>
		<polygon fill="#69CC9D" points="31.46,44.75 39.53,73.23 31,56.36 21.65,39.48 		"/>
		<polygon fill="#69CC9D" points="41.24,81.71 32.96,85.82 31.27,72.19 		"/>
		<polygon fill="#69CC9D" points="81,45.45 81,73.77 76,57.01 68.06,39.61 		"/>
		<polygon fill="#027D7A" points="33.24,20.27 30.13,31.66 20.64,35.38 		"/>
		<polygon fill="#027D7A" points="60.78,88.86 50.1,93.94 34.66,87.17 43,83.03 		"/>
		<polygon fill="#027D7A" points="28.84,60.2 29.02,69.36 26.12,81.11 19.92,76 20,76 		"/>
		<polygon fill="#027D7A" points="81,37.4 81,43.29 67.23,36.99 66.5,21.24 		"/>
		<polygon fill="#027D7A" points="59.48,47.93 66.36,63.75 66,85.98 63.12,87.63 43.73,81.2 33.49,45.21 		"/>
		<path fill="#002A1B" d="M85,79.02v2.48l-2.05,1.07L51.78,97.49l-1.62,0.77l-1.64-0.72l-17.74-7.79l-0.42-0.19l-0.38-0.27
			L16.57,79.12L15,77.94v-1.95V37.4v-1.42l0.92-1.09l15.8-18.93l0.41-0.5l0.55-0.34L51.7,3.45l2.75-1.71l2.14,2.42l27.58,30.61
			L85,35.89v1.51V79.02z M81.01,79.23L75.08,59l-6.53,5.03L68.43,85.22L81.01,79.23z M81,73.77V45.45l-12.94-5.84L76,57.01L81,73.77
			z M81,43.29V37.4L66.5,21.24l0.73,15.75L81,43.29z M67.96,62.01l5.97-4.609L62.44,49.72L67.96,62.01z M73.26,54.59l-6.92-14.97
			l-4.83,7.12L73.26,54.59z M66.36,63.75l-6.88-15.82l-25.99-2.72L43.73,81.2l19.39,6.43L66,85.98L66.36,63.75z M65.61,37.35
			L65,19.21L53.74,6.79L35,18.12l-3.2,14.36l1.27,10.71l26.64,2.78L65.61,37.35z M50.1,93.94l10.68-5.08L43,83.03l-8.34,4.14
			L50.1,93.94z M32.96,85.82l8.28-4.11l-9.97-9.52L32.96,85.82z M39.53,73.23l-8.07-28.48l-9.81-5.27L31,56.36L39.53,73.23z
			 M39.24,77.09l-8.51-16.12l0.2,8.181L39.24,77.09z M30.13,31.66l3.11-11.39l-12.6,15.11L30.13,31.66z M30.99,42.35l-0.89-8.57
			l-8.8,3.45L30.99,42.35z M30.88,85.03l-1.23-9.98L27.8,82.7L30.88,85.03z M29.02,69.36l-0.18-9.16L20,76h-0.08l6.2,5.11
			L29.02,69.36z M28.57,56.81L19,39.16v34.82L28.57,56.81z"/>
		<polygon fill="#00A86B" points="75.08,59 81.01,79.23 68.43,85.22 68.55,64.03 		"/>
		<polygon fill="#00A86B" points="65,19.21 65.61,37.35 59.71,45.97 33.07,43.19 31.8,32.48 35,18.12 53.74,6.79 		"/>
		<polygon fill="#00A86B" points="19,39.16 28.57,56.81 19,73.98 		"/>
	</g>
	<g>
	</g>
</g>
</svg>
