<?xml version="1.0" encoding="utf-8"?>
<!-- Generator: Adobe Illustrator 16.0.0, SVG Export Plug-In . SVG Version: 6.00 Build 0)  -->
<!DOCTYPE svg PUBLIC "-//W3C//DTD SVG 1.1//EN" "http://www.w3.org/Graphics/SVG/1.1/DTD/svg11.dtd">
<svg version="1.1" id="Layer_1" xmlns="http://www.w3.org/2000/svg" xmlns:xlink="http://www.w3.org/1999/xlink" x="0px" y="0px"
	 width="300px" height="300px" viewBox="0 0 300 300" enable-background="new 0 0 300 300" xml:space="preserve">
<g>
	<g id="Layer_4">
		<g id="XMLID_2_">
			<g>
				<path fill="#F9A868" d="M290,149.999c0,10.817-1.229,21.35-3.548,31.467l-38.103-35.699c-0.275-0.919-0.929-1.872-1.984-2.939
					l-15.849-15.994h-92.873c-7.944-13.991-22.839-23.433-39.949-23.393c-25.485-0.057-46.127,20.796-46.184,46.484
					c0.041,18.249,10.427,34.041,25.542,41.699l112.513,92.701C177.023,288.022,163.739,290,150,290c-77.318,0-140-62.683-140-140
					C10,72.682,72.682,10,150,10C227.325,9.999,290,72.682,290,149.999z"/>
				<path fill="#F36D21" d="M248.35,145.767l38.103,35.699c-11.33,49.318-48.708,88.697-96.885,102.859L77.053,191.624
					c6.211,3.15,13.219,4.925,20.642,4.934c17.061-0.024,31.923-9.443,39.884-23.393h18.679l14.789-14.791l11.322,11.323
					l10.867-10.867l11.167,11.16l11.323-11.314l11.321,11.314l19.323-19.315C248.131,148.843,248.806,147.346,248.35,145.767z"/>
				<path fill="#F36D21" d="M248.35,145.767c0.456,1.578-0.22,3.076-1.978,4.907l-19.323,19.315l-11.321-11.314l-11.323,11.314
					l-11.167-11.16l-10.867,10.868l-11.322-11.323l-14.789,14.791H137.58c-7.961,13.949-22.823,23.367-39.884,23.393
					c-7.423-0.01-14.431-1.783-20.642-4.934c-15.115-7.658-25.501-23.449-25.542-41.698c0.057-25.688,20.699-46.542,46.184-46.484
					c17.109-0.041,32.005,9.401,39.949,23.392h92.873l15.849,15.995C247.421,143.895,248.074,144.847,248.35,145.767z
					 M77.477,162.151c6.699-0.064,12.177-5.608,12.226-12.38c-0.049-6.87-5.527-12.413-12.226-12.372
					c-6.812-0.032-12.291,5.502-12.226,12.372C65.186,156.543,70.664,162.095,77.477,162.151z"/>
				<path fill="#F36D21" d="M89.702,149.771c-0.049,6.771-5.527,12.315-12.226,12.38c-6.812-0.057-12.291-5.608-12.226-12.38
					c-0.065-6.87,5.413-12.404,12.226-12.372C84.175,137.359,89.653,142.901,89.702,149.771z"/>
			</g>
		</g>
	</g>
	<g id="Layer_3">
		<path fill="#FFFFFF" d="M246.367,142.832l-15.855-15.999h-92.868c-7.94-13.989-22.841-23.431-39.949-23.395
			c-25.487-0.052-46.126,20.8-46.184,46.485c0.057,25.745,20.697,46.595,46.184,46.636c17.061-0.028,31.928-9.441,39.881-23.393
			h18.68l14.796-14.793l11.322,11.324l10.867-10.87l11.166,11.163l11.321-11.314l11.319,11.314l19.321-19.313
			C249.159,147.768,249.23,145.727,246.367,142.832z M77.474,162.154c-6.811-0.063-12.291-5.607-12.227-12.382
			c-0.064-6.869,5.416-12.407,12.227-12.376c6.699-0.035,12.175,5.507,12.228,12.376C89.652,156.547,84.174,162.09,77.474,162.154z"
			/>
	</g>
</g>
</svg>
