<?xml version="1.0" encoding="utf-8"?>
<!-- Generator: Adobe Illustrator 16.0.0, SVG Export Plug-In . SVG Version: 6.00 Build 0)  -->
<!DOCTYPE svg PUBLIC "-//W3C//DTD SVG 1.1//EN" "http://www.w3.org/Graphics/SVG/1.1/DTD/svg11.dtd">
<svg version="1.1" id="Layer_1" xmlns="http://www.w3.org/2000/svg" xmlns:xlink="http://www.w3.org/1999/xlink" x="0px" y="0px"
	 width="1512px" height="864px" viewBox="0 0 1512 864" enable-background="new 0 0 1512 864" xml:space="preserve">
<g>
	<g>
		<path d="M470.224,321.355c0,17.964-3.423,35.026-10.265,51.192s-16.698,30.566-29.566,43.196
			c-13.105,12.749-27.892,22.454-44.356,29.116c-16.468,6.663-33.861,9.995-52.181,9.995c-18.323,0-35.689-3.332-52.097-9.995
			c-16.408-6.662-31.104-16.367-44.093-29.116c-12.988-12.863-22.872-27.318-29.657-43.37
			c-6.784-16.049-10.174-33.055-10.174-51.019c0-18.192,3.39-35.374,10.174-51.54c6.785-16.166,16.669-30.681,29.657-43.544
			c12.755-12.63,27.307-22.19,43.658-28.682c16.351-6.488,33.86-9.734,52.531-9.734c18.784,0,36.382,3.275,52.789,9.821
			c16.408,6.549,30.99,16.079,43.748,28.595c12.985,12.863,22.869,27.378,29.653,43.544
			C466.831,285.981,470.224,303.163,470.224,321.355z M333.855,434.17c15.074,0,29.339-2.781,42.794-8.344
			c13.453-5.562,25.572-13.673,36.36-24.336c10.552-10.777,18.64-23.032,24.265-36.765s8.439-28.188,8.439-43.37
			c0-15.297-2.784-29.752-8.353-43.37c-5.567-13.615-13.684-25.87-24.352-36.765c-10.555-10.66-22.59-18.773-36.1-24.336
			c-13.513-5.562-27.864-8.344-43.055-8.344c-15.08,0-29.287,2.781-42.623,8.344s-25.398,13.676-36.184,24.336
			c-10.669,11.011-18.787,23.266-24.355,36.765c-5.567,13.502-8.349,27.959-8.349,43.37c0,15.297,2.781,29.755,8.349,43.37
			c5.568,13.618,13.687,25.873,24.355,36.765c10.669,10.777,22.613,18.92,35.836,24.423
			C304.106,431.419,318.428,434.17,333.855,434.17z"/>
		<path d="M725.751,240.178c-12.633-10.892-25.553-18.947-38.764-24.162s-27.117-7.822-41.719-7.822
			c-32.913,0-59.653,10.43-80.222,31.289c-20.571,20.859-30.854,48.036-30.854,81.525c0,16.805,2.521,31.928,7.562,45.369
			c5.041,13.444,12.717,25.379,23.032,35.809c10.196,10.199,21.872,17.964,35.026,23.293c13.151,5.332,27.261,7.996,42.327,7.996
			c14.602,0,28.855-2.49,42.762-7.475c13.906-4.981,27.058-12.342,39.459-22.076v27.117c-12.516,7.648-25.757,13.531-39.72,17.644
			c-13.966,4.112-27.785,6.171-41.458,6.171c-18.426,0-36.042-3.303-52.844-9.908c-16.805-6.605-31.232-15.875-43.283-27.812
			c-12.401-12.282-21.788-26.536-28.16-42.762c-6.375-16.223-9.561-34.011-9.561-53.365c0-19.004,3.272-36.734,9.821-53.191
			c6.546-16.454,15.962-30.65,28.247-42.588c11.935-11.703,26.335-20.859,43.196-27.465s34.388-9.908,52.583-9.908
			c16.223,0,31.259,2.232,45.108,6.692c13.847,4.463,26.449,11.155,37.808,20.077L725.751,240.178z"/>
		<path d="M840.651,457.984l-99.604-264.393h26.596l73.355,207.203l77.18-207.203h25.379L840.651,457.984z"/>
		<path d="M1126.425,448.076h-28.16l-89.348-121.332h-13.906v121.332h-23.119V193.592h46.76c27.579,0,48.237,5.736,61.97,17.209
			s20.599,28.855,20.599,52.148c0,19.816-5.883,35.404-17.644,46.76c-11.764,11.358-27.959,17.035-48.585,17.035L1126.425,448.076z
			 M995.011,213.756v94.041h23.293c21.555,0,36.591-3.446,45.108-10.343c8.518-6.894,12.776-18.627,12.776-35.2
			c0-17.497-4.405-29.955-13.211-37.373c-8.809-7.415-23.7-11.125-44.674-11.125H995.011z"/>
	</g>
	<g>
		<path fill="#F26739" d="M150.243,586.643c0,7.872-1.499,15.349-4.497,22.433s-7.317,13.395-12.957,18.929
			c-5.742,5.587-12.222,9.839-19.437,12.759c-7.216,2.92-14.838,4.38-22.866,4.38s-15.639-1.46-22.829-4.38
			c-7.189-2.92-13.63-7.172-19.321-12.759c-5.691-5.637-10.022-11.971-12.995-19.005c-2.974-7.033-4.459-14.484-4.459-22.356
			c0-7.972,1.485-15.501,4.459-22.585c2.973-7.084,7.304-13.444,12.995-19.081c5.589-5.534,11.967-9.724,19.131-12.568
			c7.165-2.844,14.839-4.266,23.02-4.266c8.231,0,15.942,1.436,23.133,4.304c7.189,2.869,13.58,7.046,19.17,12.53
			c5.69,5.637,10.021,11.997,12.995,19.081C148.757,571.142,150.243,578.671,150.243,586.643z M90.486,636.078
			c6.605,0,12.856-1.219,18.753-3.656c5.895-2.438,11.205-5.991,15.933-10.664c4.624-4.723,8.169-10.093,10.634-16.11
			s3.697-12.352,3.697-19.005c0-6.703-1.22-13.037-3.659-19.005c-2.44-5.967-5.996-11.337-10.672-16.11
			c-4.625-4.672-9.898-8.227-15.818-10.664c-5.921-2.438-12.21-3.656-18.867-3.656c-6.607,0-12.834,1.219-18.678,3.656
			s-11.129,5.992-15.855,10.664c-4.675,4.825-8.232,10.195-10.672,16.11c-2.44,5.916-3.659,12.252-3.659,19.005
			c0,6.703,1.219,13.038,3.659,19.005c2.439,5.968,5.997,11.338,10.672,16.11c4.675,4.723,9.91,8.291,15.703,10.702
			C77.45,634.872,83.727,636.078,90.486,636.078z"/>
		<path fill="#F26739" d="M180.636,588.166c3.453-5.839,6.843-9.979,10.169-12.416c3.325-2.438,7.198-3.656,11.616-3.656
			c1.32,0,2.653,0.127,3.999,0.381c1.345,0.255,2.678,0.609,3.999,1.066l-3.047,8.836c-1.017-0.305-2.069-0.559-3.161-0.762
			c-1.093-0.202-2.146-0.305-3.161-0.305c-5.637,0-10.448,2.641-14.435,7.922c-3.987,5.282-5.979,11.857-5.979,19.729v33.211h-9.369
			v-67.564h9.369V588.166z"/>
		<path fill="#F26739" d="M270.29,642.172v-12.34c-2.235,4.978-5.37,8.772-9.407,11.388s-8.798,3.923-14.282,3.923
			c-9.7,0-17.508-3.325-23.423-9.979c-5.916-6.652-8.874-15.437-8.874-26.355c0-10.816,2.92-19.64,8.76-26.47
			c5.839-6.829,13.38-10.245,22.623-10.245c5.738,0,10.702,1.257,14.892,3.771s7.427,6.208,9.712,11.083v-12.34h9.369v67.564H270.29
			z M224.739,609.113c0,8.734,1.968,15.463,5.903,20.186c3.935,4.723,9.56,7.084,16.872,7.084c7.109,0,12.708-2.577,16.796-7.731
			c4.087-5.153,6.132-12.251,6.132-21.29c0-8.276-2.031-14.789-6.094-19.538c-4.063-4.748-9.624-7.122-16.682-7.122
			c-7.059,0-12.645,2.526-16.758,7.579C226.796,593.334,224.739,600.277,224.739,609.113z"/>
		<path fill="#F26739" d="M304.796,642.172v-67.564h8.912v10.436c2.742-4.315,6.105-7.553,10.093-9.712
			c3.986-2.158,8.569-3.237,13.749-3.237c7.667,0,13.635,2.133,17.9,6.398s6.398,10.207,6.398,17.824v45.855h-9.521v-41.666
			c0-6.753-1.409-11.769-4.228-15.044s-7.173-4.913-13.063-4.913c-7.16,0-12.429,2.121-15.806,6.36
			c-3.378,4.24-5.065,10.905-5.065,19.995v35.268H304.796z"/>
		<path fill="#F26739" d="M445.485,574.607v55.834c0,8.887-0.241,15.665-0.724,20.338c-0.483,4.672-1.283,8.15-2.399,10.436
			c-2.336,5.027-5.916,8.771-10.74,11.235c-4.825,2.463-10.919,3.694-18.281,3.694c-8.988,0-15.984-1.74-20.985-5.218
			c-5.002-3.479-8.036-8.748-9.103-15.806h11.73c0.762,4.163,2.754,7.312,5.979,9.445c3.225,2.133,7.604,3.199,13.14,3.199
			c4.163,0,7.909-0.736,11.235-2.209c3.325-1.474,5.827-3.504,7.503-6.094c1.116-1.676,1.916-3.618,2.399-5.827
			c0.482-2.209,0.724-5.625,0.724-10.245v-3.58V629.68c-2.083,4.825-5.269,8.607-9.56,11.35c-4.292,2.742-9.205,4.113-14.739,4.113
			c-9.496,0-17.075-3.301-22.737-9.902c-5.663-6.601-8.493-15.463-8.493-26.584c0-11.019,2.895-19.868,8.684-26.546
			c5.789-6.677,13.456-10.017,23.004-10.017c5.332,0,10.169,1.384,14.511,4.151c4.342,2.769,7.452,6.437,9.331,11.007v-12.645
			H445.485z M413.188,580.701c-7.008,0-12.53,2.502-16.567,7.503c-4.037,5.002-6.056,11.871-6.056,20.604
			c0,8.684,1.916,15.451,5.751,20.3c3.834,4.85,9.152,7.274,15.958,7.274c7.21,0,12.987-2.563,17.329-7.693
			c4.342-5.129,6.513-12.035,6.513-20.719c0-8.531-2.031-15.208-6.094-20.033C425.959,583.113,420.349,580.701,413.188,580.701z"/>
		<path fill="#F26739" d="M528.513,608.656h-53.701c0.254,8.734,2.438,15.59,6.551,20.566c4.113,4.978,9.623,7.465,16.529,7.465
			c4.977,0,9.343-1.345,13.102-4.037c3.758-2.691,6.881-6.753,9.369-12.188l8.607,4.723c-3.454,6.855-7.682,11.896-12.683,15.12
			c-5.002,3.225-11.134,4.837-18.396,4.837c-9.902,0-17.913-3.313-24.032-9.94c-6.12-6.627-9.179-15.322-9.179-26.089
			c0-11.07,3.034-20.007,9.103-26.812c6.067-6.805,14.003-10.207,23.804-10.207c9.343,0,16.834,3.136,22.471,9.407
			c5.637,6.272,8.455,14.638,8.455,25.099V608.656z M517.392,600.658c-0.457-6.195-2.514-10.994-6.17-14.396
			c-3.656-3.401-8.607-5.104-14.854-5.104c-5.688,0-10.448,1.778-14.282,5.332c-3.835,3.555-6.056,8.277-6.665,14.168H517.392z"/>
		<path fill="#F26739" d="M638.962,551.07c-5.535-4.772-11.197-8.303-16.986-10.588s-11.883-3.428-18.281-3.428
			c-14.423,0-26.14,4.57-35.153,13.711c-9.015,9.141-13.521,21.05-13.521,35.725c0,7.363,1.104,13.99,3.313,19.881
			c2.209,5.892,5.572,11.121,10.093,15.691c4.468,4.469,9.585,7.872,15.349,10.207c5.763,2.336,11.946,3.504,18.548,3.504
			c6.398,0,12.645-1.092,18.738-3.275c6.094-2.183,11.856-5.408,17.291-9.674v11.883c-5.484,3.352-11.286,5.93-17.405,7.731
			c-6.12,1.802-12.176,2.704-18.167,2.704c-8.074,0-15.794-1.447-23.156-4.342c-7.363-2.895-13.686-6.957-18.967-12.188
			c-5.435-5.382-9.548-11.628-12.34-18.738c-2.793-7.109-4.189-14.903-4.189-23.385c0-8.328,1.435-16.098,4.304-23.309
			c2.868-7.21,6.995-13.432,12.378-18.662c5.229-5.129,11.54-9.141,18.929-12.035s15.069-4.342,23.042-4.342
			c7.109,0,13.698,0.979,19.767,2.933c6.067,1.955,11.59,4.888,16.567,8.798L638.962,551.07z"/>
		<path fill="#F26739" d="M690.226,645.143c-4.825,0-9.445-0.952-13.863-2.856s-8.43-4.634-12.035-8.188
			c-3.402-3.352-5.992-7.21-7.77-11.578c-1.778-4.367-2.666-9.038-2.666-14.016c0-4.925,0.914-9.598,2.742-14.016
			s4.443-8.328,7.846-11.73c3.453-3.453,7.389-6.094,11.807-7.922s9.064-2.742,13.939-2.742c4.977,0,9.713,0.914,14.207,2.742
			s8.492,4.469,11.996,7.922c3.504,3.454,6.182,7.389,8.037,11.807c1.854,4.418,2.779,9.064,2.779,13.939s-0.914,9.51-2.742,13.901
			c-1.828,4.393-4.469,8.291-7.922,11.692c-3.555,3.555-7.605,6.284-12.148,8.188C699.888,644.19,695.151,645.143,690.226,645.143z
			 M690.53,636.383c7.414,0,13.699-2.678,18.854-8.036c5.152-5.357,7.73-11.921,7.73-19.69c0-7.871-2.564-14.473-7.693-19.805
			s-11.426-7.998-18.891-7.998c-7.415,0-13.686,2.666-18.814,7.998c-5.13,5.332-7.693,11.934-7.693,19.805
			c0,7.77,2.563,14.333,7.693,19.69C676.845,633.705,683.115,636.383,690.53,636.383z"/>
		<path fill="#F26739" d="M755.962,574.607v33.744c0,10.258,1.459,17.494,4.38,21.709c2.92,4.216,7.857,6.322,14.815,6.322
			c6.905,0,11.856-2.133,14.854-6.398c2.996-4.266,4.494-11.476,4.494-21.633v-33.744h9.293v38.543
			c0,10.512-2.412,18.472-7.236,23.88c-4.825,5.408-11.909,8.112-21.252,8.112c-9.396,0-16.529-2.704-21.404-8.112
			s-7.312-13.368-7.312-23.88v-38.543H755.962z"/>
		<path fill="#F26739" d="M828.782,642.172v-67.564h8.912v10.436c2.742-4.315,6.105-7.553,10.093-9.712
			c3.986-2.158,8.569-3.237,13.749-3.237c7.667,0,13.635,2.133,17.9,6.398s6.398,10.207,6.398,17.824v45.855h-9.521v-41.666
			c0-6.753-1.409-11.769-4.228-15.044s-7.173-4.913-13.063-4.913c-7.16,0-12.429,2.121-15.806,6.36
			c-3.378,4.24-5.065,10.905-5.065,19.995v35.268H828.782z"/>
		<path fill="#F26739" d="M912.038,582.605h-12.416v-7.998h12.416v-27.727h9.217v27.727h13.559v7.998h-13.559v59.566h-9.217V582.605
			z"/>
		<path fill="#F26739" d="M939.536,574.607h9.979l19.348,52.863l17.824-52.863h9.979l-34.963,101.537h-9.674l11.807-34.43
			L939.536,574.607z"/>
		<path d="M1041.378,646.514l-43.646-115.857h11.654l32.145,90.797l33.82-90.797h11.121L1041.378,646.514z"/>
		<path d="M1166.604,642.172h-12.34l-39.152-53.168h-6.094v53.168h-10.131V530.656h20.49c12.085,0,21.138,2.514,27.155,7.541
			s9.026,12.645,9.026,22.852c0,8.684-2.578,15.514-7.731,20.49c-5.154,4.978-12.252,7.465-21.29,7.465L1166.604,642.172z
			 M1109.019,539.492v41.209h10.207c9.445,0,16.034-1.511,19.767-4.532c3.732-3.021,5.599-8.162,5.599-15.425
			c0-7.667-1.931-13.127-5.789-16.377c-3.859-3.249-10.386-4.875-19.576-4.875H1109.019z"/>
		<path d="M1182.067,635.773c0-2.183,0.749-4.024,2.247-5.522c1.497-1.497,3.339-2.247,5.522-2.247c2.183,0,4.024,0.75,5.522,2.247
			c1.497,1.498,2.247,3.34,2.247,5.522c0,2.184-0.75,4.025-2.247,5.522c-1.498,1.497-3.34,2.247-5.522,2.247
			c-2.184,0-4.025-0.75-5.522-2.247C1182.816,639.799,1182.067,637.957,1182.067,635.773z"/>
		<path d="M1277.358,586.947c-3.149-2.183-6.501-3.82-10.055-4.913c-3.555-1.092-7.211-1.638-10.969-1.638
			c-8.379,0-15.057,2.679-20.033,8.036c-4.978,5.358-7.465,12.505-7.465,21.442c0,7.922,2.577,14.447,7.731,19.576
			c5.153,5.13,11.742,7.693,19.767,7.693c3.656,0,7.351-0.635,11.083-1.904c3.732-1.269,7.4-3.173,11.007-5.713v10.283
			c-3.302,1.879-6.958,3.287-10.969,4.228c-4.012,0.939-8.303,1.409-12.873,1.409c-10.31,0-18.765-3.39-25.365-10.169
			c-6.602-6.779-9.902-15.45-9.902-26.013c0-11.019,3.439-19.969,10.321-26.851c6.881-6.881,15.831-10.321,26.851-10.321
			c4.062,0,7.884,0.394,11.464,1.181c3.58,0.788,6.767,1.917,9.56,3.39L1277.358,586.947z"/>
		<path d="M1326.642,645.143c-4.825,0-9.445-0.952-13.863-2.856s-8.43-4.634-12.035-8.188c-3.402-3.352-5.992-7.21-7.77-11.578
			c-1.778-4.367-2.666-9.038-2.666-14.016c0-4.925,0.914-9.598,2.742-14.016s4.443-8.328,7.846-11.73
			c3.453-3.453,7.389-6.094,11.807-7.922s9.064-2.742,13.939-2.742c4.977,0,9.712,0.914,14.206,2.742s8.493,4.469,11.997,7.922
			c3.504,3.454,6.182,7.389,8.036,11.807c1.854,4.418,2.78,9.064,2.78,13.939s-0.914,9.51-2.742,13.901
			c-1.828,4.393-4.469,8.291-7.922,11.692c-3.555,3.555-7.605,6.284-12.149,8.188
			C1336.303,644.19,1331.566,645.143,1326.642,645.143z M1326.946,636.383c7.414,0,13.698-2.678,18.853-8.036
			c5.153-5.357,7.731-11.921,7.731-19.69c0-7.871-2.564-14.473-7.693-19.805c-5.13-5.332-11.426-7.998-18.891-7.998
			c-7.415,0-13.686,2.666-18.814,7.998c-5.13,5.332-7.693,11.934-7.693,19.805c0,7.77,2.563,14.333,7.693,19.69
			C1313.261,633.705,1319.531,636.383,1326.946,636.383z"/>
		<path d="M1392.378,642.172h-9.369v-67.564h9.369v10.588c2.234-4.266,5.18-7.515,8.836-9.75c3.656-2.234,7.871-3.352,12.645-3.352
			c4.925,0,9.128,1.131,12.606,3.39c3.478,2.26,6.157,5.573,8.036,9.94c2.691-4.468,5.991-7.808,9.902-10.017
			c3.91-2.209,8.455-3.313,13.635-3.313c7.16,0,12.797,2.171,16.91,6.513s6.17,10.296,6.17,17.862v45.703h-9.369v-41.971
			c0-6.601-1.359-11.578-4.075-14.93c-2.717-3.352-6.768-5.027-12.149-5.027c-6.449,0-11.186,2.107-14.206,6.322
			c-3.021,4.216-4.532,10.893-4.532,20.033v35.572h-9.293v-41.971c0-6.905-1.295-11.959-3.885-15.158s-6.602-4.799-12.035-4.799
			c-6.602,0-11.452,2.133-14.549,6.398c-3.098,4.266-4.646,10.919-4.646,19.957V642.172z"/>
	</g>
	<g>
		<polyline fill="#F26739" points="790.677,196.339 841.345,353.256 895.345,197.256 		"/>
	</g>
</g>
</svg>
