<?xml version="1.0" encoding="utf-8"?>
<!-- Generator: Adobe Illustrator 16.0.0, SVG Export Plug-In . SVG Version: 6.00 Build 0)  -->
<!DOCTYPE svg PUBLIC "-//W3C//DTD SVG 1.1//EN" "http://www.w3.org/Graphics/SVG/1.1/DTD/svg11.dtd">
<svg version="1.1" xmlns="http://www.w3.org/2000/svg" xmlns:xlink="http://www.w3.org/1999/xlink" x="0px" y="0px" width="300px"
	 height="300px" viewBox="-100 -100 300 300" enable-background="new -100 -100 300 300" xml:space="preserve">
<g id="Layer_3">
	<circle fill="#FAA767" cx="50" cy="51" r="140"/>
</g>
<g id="Layer_2" display="none">
	<circle display="inline" fill="#FAA767" cx="50" cy="50" r="140"/>
	<g display="inline">
		<g>
			<g id="XMLID_1_">
				<g>
					<path fill="#FF6C00" d="M140.85,22.13l45.391,60.21c-3.67,15.561-9.95,30.13-18.34,43.2L91.3,34.34v-10.6
						c0-5.03,4.09-9.12,9.13-9.12h31.45C136.37,14.62,140.1,17.87,140.85,22.13z"/>
					<path fill="#FF6C00" d="M91.3,34.34l76.601,91.2c-7.511,11.69-16.71,22.19-27.25,31.16L21,34.75V21.11
						c0-5.88,4.77-10.64,10.65-10.64h36.7c5.351,0,9.79,3.95,10.54,9.09L91.3,34.34z"/>
					<path fill="#FF6C00" d="M21,34.75L140.65,156.7c-14.66,12.46-31.92,21.96-50.851,27.56l-114.67-69.38
						c-3.98-0.89-6.95-4.54-6.95-8.899V75.67h-0.05c-5.04,0-9.13-4.09-9.13-9.13v-42.8c0-5.03,4.09-9.12,9.13-9.12h31.44
						c4.46,0,8.18,3.21,8.97,7.43L21,34.75z"/>
				</g>
				<g>
				</g>
			</g>
		</g>
	</g>
	<g display="inline">
		<g>
			<path fill="#FFFFFF" d="M68.35,10.467H31.651c-5.88,0-10.649,4.765-10.649,10.647v49.939c0,5.882,4.769,10.652,10.649,10.652
				h0.06v35.374c0,5.88,4.634,10.649,10.354,10.649h15.873c5.716,0,10.354-4.769,10.354-10.649V81.706h0.059
				c5.879,0,10.649-4.769,10.649-10.652V21.114C78.996,15.232,74.229,10.467,68.35,10.467z"/>
			<circle fill="#FFFFFF" cx="50" cy="-10.348" r="17.381"/>
		</g>
		<g>
			<path fill="#FFFFFF" d="M131.875,14.619h-31.446c-5.042,0-9.127,4.086-9.127,9.125v42.794c0,5.045,4.085,9.129,9.127,9.129h0.052
				v30.311c0,5.041,3.971,9.125,8.868,9.125h13.604c4.898,0,8.87-4.084,8.87-9.125V75.668h0.048c5.045,0,9.129-4.088,9.129-9.13
				V23.743C141,18.705,136.916,14.619,131.875,14.619z"/>
			<circle fill="#FFFFFF" cx="116.152" cy="-3.215" r="14.895"/>
		</g>
		<g>
			<path fill="#FFFFFF" d="M-0.429,14.619h-31.445c-5.04,0-9.126,4.086-9.126,9.124v42.795c0,5.042,4.086,9.13,9.126,9.13h0.05
				v30.309c0,5.043,3.975,9.127,8.871,9.127H-9.35c4.899,0,8.871-4.084,8.871-9.127V75.668h0.05c5.04,0,9.126-4.088,9.126-9.13
				V23.743C8.695,18.705,4.609,14.619-0.429,14.619z"/>
			<circle fill="#FFFFFF" cx="-16.152" cy="-3.216" r="14.893"/>
		</g>
	</g>
</g>
<g id="Your_Icon">
	<g id="XMLID_2_">
		<g>
			<path fill="#FF6C00" d="M-43.91,68.86l-0.07,0.08c-1.48-0.16-2.54-1.49-2.38-2.971c0.14-1.27,1.15-2.239,2.38-2.38l41.39-4.56
				l11.5-42.98c1.19-4.42,5.74-7.05,10.16-5.87c2.81,0.76,4.9,2.86,5.74,5.43l0.03,0.09l21.38,66.63L68.89-13.24
				c1.17-4.94,6.13-7.99,11.07-6.82c2.93,0.7,5.2,2.72,6.31,5.29l99.79,97.86c-11.689,48.29-48.439,86.8-95.699,101L-43.91,68.86z"
				/>
		</g>
		<g>
		</g>
	</g>
</g>
<g id="Layer_4">
	<path fill="#FFFFFF" d="M144.045,63.592l-41.227-5.667L86.832-13.029l-0.022-0.116c-0.752-3.314-3.318-6.079-6.849-6.917
		c-4.941-1.171-9.897,1.885-11.069,6.826L46.221,82.327L24.842,15.704l-0.028-0.092c-0.846-2.57-2.932-4.676-5.742-5.428
		c-4.426-1.185-8.976,1.445-10.16,5.871L-2.586,59.027l-41.395,4.564c-1.225,0.136-2.238,1.104-2.38,2.381
		c-0.163,1.477,0.903,2.806,2.38,2.971L3.688,74.2c3.296,0.366,6.471-1.688,7.407-4.983l0.237-0.839l6.152-21.647l22.244,68.03
		c0.838,2.503,2.904,4.591,5.65,5.298c4.307,1.104,8.696-1.49,9.801-5.798l0.014-0.049l21.954-85.5l8.717,39.604l0.257,1.168
		c0.9,4.035,4.762,6.77,8.93,6.199l48.99-6.737c1.17-0.161,2.139-1.08,2.307-2.308C146.558,65.157,145.523,63.796,144.045,63.592z"
		/>
</g>
</svg>
