<?xml version="1.0" encoding="utf-8"?>
<!-- Generator: Adobe Illustrator 16.0.0, SVG Export Plug-In . SVG Version: 6.00 Build 0)  -->
<!DOCTYPE svg PUBLIC "-//W3C//DTD SVG 1.1//EN" "http://www.w3.org/Graphics/SVG/1.1/DTD/svg11.dtd">
<svg version="1.1" id="Layer_1" xmlns="http://www.w3.org/2000/svg" xmlns:xlink="http://www.w3.org/1999/xlink" x="0px" y="0px"
	 width="256px" height="256px" viewBox="0 0 256 256" enable-background="new 0 0 256 256" xml:space="preserve">
<title>Layer 1</title>
<path fill="#FFFFFF" stroke="#F16639" stroke-width="0.7552" stroke-linecap="round" stroke-linejoin="round" d="M127.962,2.965
	C58.928,2.985,2.981,58.966,3.002,128c0,0.025,0,0.05,0,0.076c0.021,69.034,56.001,124.981,125.035,124.959
	c69.035-0.021,124.981-56.001,124.96-125.035c0-0.025,0-0.05,0-0.076C252.977,58.89,196.996,2.944,127.962,2.965z M228.368,128.001
	c0.006,55.432-44.926,100.372-100.358,100.378c-55.432,0.006-100.373-44.926-100.378-100.357c0-0.007,0-0.014,0-0.021
	C27.626,72.569,72.558,27.628,127.99,27.622S228.363,72.548,228.368,127.98C228.368,127.987,228.368,127.994,228.368,128.001z"/>
<polygon fill="#FFFFFF" stroke="#F16639" stroke-width="0.7496" stroke-linecap="round" stroke-linejoin="round" points="
	96.444,65.883 97.309,128 98.173,190.117 150.16,158.291 202.148,126.463 149.296,96.173 "/>
</svg>
